<svg id="Ebene_1" preserveAspectRatio="none" data-name="Ebene 1" xmlns="http://www.w3.org/2000/svg" viewBox="0 0 915.33 544.24"><defs><style>.cls-1{fill:none;stroke:#000;stroke-miterlimit:10;}.cls-2{fill:#202020;}</style></defs><title>Textbox</title><path class="cls-1" d="M4.65,5.9" transform="translate(-2.54 -1.96)"/><path class="cls-1" d="M916.26,3.58" transform="translate(-2.54 -1.96)"/><path class="cls-2" d="M4.65,2.92c-.48.08-.21.28,1.11.24l.94-.33Z" transform="translate(-2.54 -1.96)"/><path class="cls-2" d="M13.54,3.53c1.56-.16,3.35-.44,2.34-.75-1.54.32-1.91.19-3.57.57-1.32,0-2.31-.11-2.08-.23a23.52,23.52,0,0,0-2.77.13,26.75,26.75,0,0,0,6.18.06C14.13,3.38,13.65,3.47,13.54,3.53Z" transform="translate(-2.54 -1.96)"/><path class="cls-2" d="M142.82,4,142,4C142.21,4,142.5,4,142.82,4Z" transform="translate(-2.54 -1.96)"/><path class="cls-2" d="M222.92,4.23a2.88,2.88,0,0,0-.9.07A3.25,3.25,0,0,0,222.92,4.23Z" transform="translate(-2.54 -1.96)"/><path class="cls-2" d="M236.6,4.59l-.81,0A3.8,3.8,0,0,0,236.6,4.59Z" transform="translate(-2.54 -1.96)"/><path class="cls-2" d="M142.82,4l2.14.11A9,9,0,0,0,142.82,4Z" transform="translate(-2.54 -1.96)"/><path class="cls-2" d="M31.37,2.73c-.45,0-.82,0-1.16.09l1.09,0Z" transform="translate(-2.54 -1.96)"/><path class="cls-2" d="M107.51,4.31h-.65l-.54.14Z" transform="translate(-2.54 -1.96)"/><path class="cls-2" d="M80.41,4.36A1.6,1.6,0,0,0,81.47,4a4.76,4.76,0,0,1-1.33.19C80.13,4.22,80.21,4.28,80.41,4.36Z" transform="translate(-2.54 -1.96)"/><path class="cls-2" d="M37.44,3.87l-.76,0Z" transform="translate(-2.54 -1.96)"/><path class="cls-2" d="M126.91,4.37a.45.45,0,0,0,.24.1S127.06,4.41,126.91,4.37Z" transform="translate(-2.54 -1.96)"/><path class="cls-2" d="M884.85,2.26s0,0,0,.05C885,2.28,885.05,2.26,884.85,2.26Z" transform="translate(-2.54 -1.96)"/><path class="cls-2" d="M916.26,3.65l-.44,0c0,.05-.09.1-.09.16Z" transform="translate(-2.54 -1.96)"/><path class="cls-2" d="M261.62,5h-.11C260.85,5,261.23,5,261.62,5Z" transform="translate(-2.54 -1.96)"/><path class="cls-2" d="M491.39,4.74c-2.61-.25,4.23-.32.31-.6C492.07,4.25,488.14,4.58,491.39,4.74Z" transform="translate(-2.54 -1.96)"/><path class="cls-2" d="M32.07,2.77h1.11C32.68,2.75,32.33,2.76,32.07,2.77Z" transform="translate(-2.54 -1.96)"/><path class="cls-2" d="M491.7,4.14h0l-.4,0Z" transform="translate(-2.54 -1.96)"/><path class="cls-2" d="M319.29,4.78a2.73,2.73,0,0,0-.59-.12S318.86,4.72,319.29,4.78Z" transform="translate(-2.54 -1.96)"/><path class="cls-2" d="M276.33,4.38l1.06,0C277,4.39,276.63,4.39,276.33,4.38Z" transform="translate(-2.54 -1.96)"/><path class="cls-2" d="M341.6,4.39a12.82,12.82,0,0,0,1.56,0l-.24,0A6.48,6.48,0,0,1,341.6,4.39Z" transform="translate(-2.54 -1.96)"/><path class="cls-2" d="M364.82,4.38l-.43,0h-.74Z" transform="translate(-2.54 -1.96)"/><path class="cls-2" d="M814.29,2.4a5.68,5.68,0,0,1,1.07.25C815,2.45,818.41,2.38,814.29,2.4Z" transform="translate(-2.54 -1.96)"/><path class="cls-2" d="M31.38,2.89a1.63,1.63,0,0,1,.69-.12H31.3C31.23,2.82,31.22,2.86,31.38,2.89Z" transform="translate(-2.54 -1.96)"/><path class="cls-2" d="M342.54,2.17l3.69,0C345.2,2.18,343.86,2.17,342.54,2.17Z" transform="translate(-2.54 -1.96)"/><path class="cls-2" d="M647.72,2.44l.85,0A5.31,5.31,0,0,0,647.72,2.44Z" transform="translate(-2.54 -1.96)"/><path class="cls-2" d="M357.18,2.17c.66.1,1.35.15,2.07.19a3.21,3.21,0,0,0,.43-.07Z" transform="translate(-2.54 -1.96)"/><path class="cls-2" d="M815.37,2.65h0Z" transform="translate(-2.54 -1.96)"/><path class="cls-2" d="M839.66,2c-3.51,0-1.65.37-2.39.58-4.2.1-1.94-.27-3.37-.46-2.62.09-4.63.43-6.58.42-.15-.06-.53-.08-.08-.16-2.77.29-8.23,0-11.45.38a1.49,1.49,0,0,1-.42-.09c.52.19.6.38.49.51a15.59,15.59,0,0,1-3.51,0A5.27,5.27,0,0,0,813.84,3l-1.65.1c-1.48-.35,2.26-.12,2.26-.38-3.22.12-7,.4-9.44.31-.52-.34,5.77-.12,2.47-.42l3.82.13c-2.92-.54,2.32,0-.36-.54-5-.1-5.62.18-10.63.08-1.13.19.37.28-.75.46-7.13.34-5.61-.85-10.85-.4a15,15,0,0,1-5.61.43l1.28-.38c-4.87,0-2.78.55-7.87.29.9-.15,3.82-.13,3.08-.17-3.3-.3-2.33.22-4.87.22l-.52-.34c-5.18.05-10.89.3-16.62.36.32-.1,1.3-.21,0-.31-7.23.17-15.44-.05-22.42-.25l-2.66.3c-.62,0-1.15-.14-.48-.19-2.72-.11-.14.18-1.45.3-1.55,0-2-.17-1.06-.26-4.8.25-13.67.54-18.73.22l1-.08c-3.94-.12-4.44.6-8.09.32l.7,0c-8.55-.13-18,.14-24.51-.3-1.24.42-8.45-.19-9,.4-4.88-.29-3.48-.4-10.35-.59-1.84,0-2.74.37-5,.43l-.05-.31-3.08.32-1.64-.37-2.13.08c.85,0,1.8.14,1.67.23a45.83,45.83,0,0,1-8.18-.37l-7.86.26a14.92,14.92,0,0,1,2.53-.25c-4.2.32-.76-.32-4.61,0,.51.07-.28.18-.37.24-1.91-.18-6.28-.19-9.51-.11l.62-.21c-5.83-.05-12.29.1-18.84.1,2.35.1,1.81.47-.11.5l-.77-.32c-1.24.2,2,.12-.54.36-2.44,0-1.64-.37-.24-.47l-3,.11c-.18-.1.52-.15.7-.27-1.22.2-5.13-.33-6.89,0L593,2.1c-6.54,0-9.51.11-14.84.12-.1.28-2.19.22-3.77.45-3.92-.09-8.27-.31-13-.29-3.32.14-1,.24-2.46.41-.24-.26-5-.24-2.51-.42-5.67,0-7.24,0-14.4.26.78.1,1.65.15,1.2.24a7.74,7.74,0,0,1-2.77-.23l.34,0c-8,.38-18.56-.75-25-.21l.36,0-6.65.28c-3.05,0,1.84-.19-.42-.35-7.17.43-11.32-.06-17.22.22-4.57-.75-16.2,0-22.37-.43l.36.18a13.94,13.94,0,0,1-3.1-.14c.16.14,1.73.16.74.25-13.5.22-27.85-.26-41.69-.42-5.06,0-2.87.92-9.25.5l1.81-.33c-10.21.39-20.88,0-30.87.32a6.81,6.81,0,0,1,1.58-.17,41.37,41.37,0,0,0-7.84.18c-1.56,0-.36-.18-1.32-.28-2.12-.14-5.31.31-6.44.07-.19,0,.6-.08,1-.09-1.38.11-6.43,0-5.11.24-3.75-.13-7.17.13-10.17,0-1.95.31-6.42-.15-7,.29.27-.45-6.57-.36-8.95-.15.8-.14-2.06-.14-1.13-.33-2.71,0-5.19.09-4.72.32-5-.54-10,.44-12.83-.26-8,.25-15.48.41-22.71.52.26-.46,8,0,7.68-.52-6.86.18-10.82.57-17.63.46-1.76-.06,1-.19,1.6-.27-6.86.18-13.26,0-19.36.2a9.1,9.1,0,0,1,1.3-.12c-1.2,0-2.8-.06-2.66.14L274,2.58c1.92.3-4.77.63-5,.78,2-.58-6-.14-2.78-.89-.79,0-1.79.14-1.6.28-1.18,0-1.55-.12-.36-.28-4.31.11-2.78.33-6.68.32a9.71,9.71,0,0,1,1.21-.25,51.76,51.76,0,0,1-7.26.3c.2-.06-.18-.13.8-.13-5.66,0-9.65.51-15.87.33,1.84-.44-2.11-.15-2.44-.52l-3.34.11,1.34.18c-2.92,0-5.51.27-8,.15l2.18-.16-5.48.07,3.1.15c-3,.19.32.47-3.58.36.79,0-2.93,0-4.45-.22h0a37.24,37.24,0,0,1-5.1.15c-.56-.12.45-.41.09-.49-1.43.31-6.86.08-8.67.42.61-.08.64-.28.44-.32l-1.2.26c-1.35-.09-1.55-.12-1.33-.28-4.08,0,1.29.47-3.55.27.38,0,.2-.06,1-.1-4.86-.1-9.39.16-13.85,0-1.32-.38,3.9-.09,2.39-.41-6.44.07-13.33.45-19.56.36l1.16,0c-.87.53-4.64-.26-7.79,0,.77,0,1-.29.8-.24-4.27-.08-8.73.14-15.19.3l.8-.13c-2.51-.13-6.62-.07-9.34-.14-.81.14-2.36.12-1.42.32-8.37-.78-16,.41-23.4-.23.88,0,2.11-.12,1.41-.12L107.1,3a8.6,8.6,0,0,0,2.16.32,31,31,0,0,1-4.16.24c2.85-.15,0-.37-1.25-.5.2.07-.22.15-.12.22-3.3-.41-.55.47-5.06.19l.23-.12c-1.69.06-3.24.22-5.06.19-.76-.27,1.79-.13,1.91-.35-2.56,0-5,.51-7.37.24,1.09-.07,2.65-.07,3.74-.15A32.91,32.91,0,0,0,87.43,3h.19l-4.34-.14,1.11.08c-3.21.7-6.52.13-10.84.58,4.19-.43.69-.25,1-.55-1.11-.08-2.78-.18-2.3-.26-2,.24-3.41-.19-6.29.16-.12-.09-2.18,0-1.72-.25-2.65.08.63.17.41.29-4.09.33-9.61-.4-15.49,0-5.07.19-6,.52-10.71.68-1.58-.15,1.3-.35,1.3-.35a63.56,63.56,0,0,0-6.9,0c.49-.08,0-.15-.75-.26-1.94,0-1.29.35-3.85.21a12.81,12.81,0,0,1,1.94-.39c-2.29.09-4.54.27-6.9.36-.63-.17,1.42-.26,2.26-.37a64.07,64.07,0,0,0-7.7.42l1.7.1c-1,0-.5-.23.22-.28a7.23,7.23,0,0,1,3.41.19l-1.69.06c1.73.57,6.76-.09,10.15-.06l-1.41.42,3.47-.35c.74.11,1.25.34-.43.41,2.43.2,2.15-.15,4.24.08.23,0,.13.05-.09.07l2.37-.12c-.46.08.4.29-1.06.23,4.26.24,6.87-.31,8.47,0l-.35,0c5.91-.14.57-.31,5-.67l3,.76.58-.31c.61,0,1.82,0,1.6.16,2.27-.21-.39-.14.93-.33,2.93.28,8.09-.13,8.75.35,1.05-.23-2.81-.18.32-.34.9.53,3.63-.09,6.31.15-.83.27-3.37.13-.68.37,1.61-.45,5.22.1,7.48,0,.1-.36,4.91-.15,8.71-.27-.24.12,7.13.2,10.66.33l-.1.06c.68-.36,4.32-.29,7-.37-.1.22-.58.31-2,.4h2.49a19.12,19.12,0,0,1,3-.22l-.63.28c3.32,0,6.68-.33,11-.14.24-.26-3.39-.72,1.12-.89.17.14.33.38-.85.43a19.35,19.35,0,0,1,2.16,0l-1.8.23c1.94.1,1-.19,2.57-.17,0,.2,1.15.14.93.3a17.78,17.78,0,0,0-2,0,38.06,38.06,0,0,1,4.57.3c-.16-.11,0-.26,1.28-.29,3.32,0,1.13.24,3.07.34.8-.14,2.92,0,3-.29a4.54,4.54,0,0,1,1.53.22c1.71-.13,8,0,6.08-.35l-.44,0h.28c5.63-.3,11.69.16,17.27,0V4.1c3.34-.11,7.42-.06,9.8-.27,1,0,2.33.18,1.9.29a59.72,59.72,0,0,1,6.52,0c-2.56.17.88.15-2.63.13a55.49,55.49,0,0,0,7.62,0c-1.21.25,2.49.32,4.06.24l-2.32-.18c1.77,0,3.32,0,4.89,0l-.85.33c6.77.41,12.21-.69,17.37,0,1.79-.23-3.68-.16-2.08-.43,3.12,0,6.37.52,7.34.52,4.27.18,4-.49,8.45-.36-.57-.12-1.11-.44,2.23-.55,3.12,0,3.83.5,1.86.59-.75,0-1.11,0-1.08-.06-1,0-2.32.09-1.09.22l.4-.12c1.55.12,5.84.11,4.83.3,2.36-.11,1-.19-.73-.25,4,.17,6.24,0,10.36.12-.66-.07-1.26-.21-.61-.21,6,.15,2.66-.22,6.75-.27,2.33.18-.83.43,3.29.28,2.51.12.53.31-.47.41A90.5,90.5,0,0,1,253.9,5l-2,.1C253.11,5,254.08,5,255.06,5l-1.13-.23a9.14,9.14,0,0,1,2.13.14c1.19-.16-.92-.4,1.45-.61,1.55.12,4.71-.13,5.25.18-4.87-.1.54.32-3.58.37.79,0,1.76,0,2.93,0,.17,0-.17.06-.49.08,4.66.28,2.14-.36,7-.35-.61.18,1.12.34,1.9.3-1.94,0-.93-.3.86-.43,3.09.14,3.36-.1,5-.09l-1.85-.06a28.63,28.63,0,0,1,4.33-.21c.19.14-2,.09-1.19.15,2.4-.31,5.41.33,8.75.12,1.55.12.15.33,1.51.41,3.74-.23,4.05.24,8,0-1.14-.23-1.34-.18,1.43-.41l-6.46.17L295,4.25c-1.95,0-4.12.15-5.29.11,2-.19,1.77-.13.84-.33,2.67.36,5.29-.21,8.38,0l-.09.59c4.64.27,8.24-.3,14.27-.15l-1.94-.11c.81-.23,3.72,0,5.67-.12-.18.19,1,.27,1.87.39-.1-.15,4.41,0,5-.38l2.69.26c4.87.1,5.55-.56,10.23-.5-1.41.22.72.36-2.41.51a13.38,13.38,0,0,0,3-.1c.91.13,4.33-.26,5.76-.08a10.07,10.07,0,0,1,2.63-.27c.19,0,0,.09,0,.09s2.75-.13,1.21-.35c4.81.62,13.45,0,17.64.49,3.41-.07,7.51-.13,10.6-.15-.19.06,0,.1-.59.08,4.27.18,2.62-.57,7.48-.36,2.48.32-2.58.17-1,.29.67.65,5.86-.09,9.13.29l-.79,0c2.49.22,6.09-.24,10.17-.2,0,0-.2.06,0,.1,2.79-.33,8.07-.44,12-.53-1.22.25-1.78.13-1,.39,1.76,0-.51-.42,3-.49,1.14.14,3.68.26,4,.54H414c1.7.36,4.29,0,6,0l-.22.16c5.08,0,5.15-.44,10.61-.42L429.85,4c3-.39,2.51.21,5.48-.07l.9.39c2-.09,6.9-.38,10.43-.46-2,.3-6.13.45-8.69.62,1.95,0,6.63,0,7.65-.22a24.39,24.39,0,0,1-2.56.07,76.86,76.86,0,0,1,9.43-.46c-.68.77,10.14.2,13,.79,6.88-.28,13.64.12,21.65.08-2.84-.6,2.34,0,1.85-.63a23,23,0,0,1,2.75,0l5.65.36c1.34.18-1.77.14-1.6.28,4.09,0,1.71.26,4.42.42-.56-.22,1.42-.31,3.75-.23l-3.28-.28c5.71-.33,4.93.51,10.69.19l-1.82.19c3-.11,10.9,0,13.79-.49.52.07,1.21.24-.09.28,7.06.08,15.72-.52,21.2-.22l-.53.15a25.69,25.69,0,0,1,3.94-.13c-.09.07-.53.15.08.16a51.64,51.64,0,0,1,5.24-.17l-1.49.16c6.89.2,10.57-.4,16.34-.51,0,.44,5.4.59,8.11.66L576,5c8,.05,13.62-.37,21-.54,4.61.48,15.61.2,23,.47-1.13-.08.18-.34,1.5-.39,1.74.09,4.8-.3,4.53.1h-.62c1.31.4,4.88.29,7.67.3l.46-.52c7.3.76,19.12-.29,23.1.4,1.76-.13,3.94-.13,5.69-.26l-.1.28c4.88.08,7.31.11,13.34,0l-1.23.21c3.41,0,4.3-.82,7.44-.84l.94.43c5.93,0,11.94.36,17.8,0-.09.06-.27.18-1.23.2,2.79,0,10.81.28,9.79-.3.07.38,6.12,0,9.33-.13l-.5.28a42.16,42.16,0,0,1,6.57-.55c.89,0,.78.22-.41.15,3,.15,2.33-.26,5.94-.11l-1.34.18a20.43,20.43,0,0,0,4.51-.29,28.58,28.58,0,0,1,6.27.33,14.44,14.44,0,0,1,3.91-.29c.24.09-.42.15-.75.18,5.13.19,7.63-.32,11.16-.05a1,1,0,0,0,.6.17c-4.08,0-7.36,0-7.05,0,0,.25,3.29.3.67.65,2.64-.19,7.16-.61,10.37-.49a2.31,2.31,0,0,1,.43.09l-.34,0c.74,0,1.41,0,2,0,1,0,1.68.07,2.66.07a39.62,39.62,0,0,0,5.42.13c-.14-.28,2-.24,0-.47a6.52,6.52,0,0,1-1.4,0l-.7,0,.11,0-4.08,0A21.81,21.81,0,0,1,767,4.33c.85-.18,1.77-.36,2.3-.45,2.24.39,6.58.6,7.18.84,5-.15,11.81-.1,15-.63a5.66,5.66,0,0,1,2.17.24c-.82,0-1.8,0-2.24.12,2.85-.14,8.44-.06,9.12-.42,3.59.16-2,.33,2.92.27l-.67.12c9.71.59,15.79-.94,26.55-.19A6,6,0,0,1,828,4.1c12.28.34,25.29-.31,37.41.22A31.61,31.61,0,0,0,871.36,4l.75.3L875.7,4c5.09-.25,8.82.75,15.27.26l-.83-.2c2.31,0,7.33-.12,7,.11a4.74,4.74,0,0,1,1.66-.1l.07.16,5.69-.27c4.41.11-.69.62,5.75.65,2.39-.06,6.81-.46,5.91-.56a8.57,8.57,0,0,1-2.54-.26l2.19-.08c.4-.47,2.08-.94-3.29-1.27l-3.74.29-1.21-.23h3.15a16.11,16.11,0,0,0-4.19.1A5.78,5.78,0,0,0,905,2.3l-3.68.45c-.44-.19,1.65-.37-.82-.47-1.72.21,1.65.41-1.2.55a9.33,9.33,0,0,0-3.37-.21c-.29-.12.15-.19,1-.24-1.87.14-4.95.06-5.92.3-1.87-.26-6.32.07-6.13-.37a47.53,47.53,0,0,1-5,.37c3.13-.53-6.44,0-5.61-.6-2.32.47-8.39.21-12.5.47a5.92,5.92,0,0,1,1-.09c-2.32,0-3-.18-4.48-.27-.3.39-3.9.48-5.85.72-2.84-.37,1.73-.46.84-.82.14.32-4.94.32-4,.58a11.36,11.36,0,0,1-3-.44c-.38.49-2,.09-3.82.39-3.15-.24-.81-.46-4.26-.31C836.59,2.16,839.66,2,839.66,2Zm-82.09.85h0l1.69,0Zm-6.9,0h3c.24.09,0,.19-.71.19A12.18,12.18,0,0,0,750.67,2.84Zm14.59,1.94a4.94,4.94,0,0,1-1.6-.07l1.91,0,.12,0A1.07,1.07,0,0,1,765.26,4.78Z" transform="translate(-2.54 -1.96)"/><path class="cls-2" d="M767.23,4.42l.45,0L767,4.33l-.38.09Z" transform="translate(-2.54 -1.96)"/><path class="cls-2" d="M141.84,4H142l-.31,0Z" transform="translate(-2.54 -1.96)"/><polygon class="cls-2" points="652.86 0.34 652.87 0.41 653.48 0.35 652.86 0.34"/><path class="cls-2" d="M103.85,3a2.81,2.81,0,0,0-.5-.07A2.13,2.13,0,0,0,103.85,3Z" transform="translate(-2.54 -1.96)"/><path class="cls-2" d="M87.43,3l-2.32-.1C86.11,2.93,86.85,3,87.43,3Z" transform="translate(-2.54 -1.96)"/><path class="cls-2" d="M74.81,2.83a.61.61,0,0,0-.24.12h0Z" transform="translate(-2.54 -1.96)"/><path class="cls-2" d="M275.46,2.5H276C277.09,2.43,276.31,2.46,275.46,2.5Z" transform="translate(-2.54 -1.96)"/><path class="cls-2" d="M215.75,3.16c.63-.05,1.26-.1,1.92-.13C216.61,3,215.78,3,215.75,3.16Z" transform="translate(-2.54 -1.96)"/><path class="cls-2" d="M342.14,2.16h0Z" transform="translate(-2.54 -1.96)"/><path class="cls-2" d="M220.45,3a25.66,25.66,0,0,0-2.78,0C218.54,3,219.57,3.07,220.45,3Z" transform="translate(-2.54 -1.96)"/><path class="cls-2" d="M20.12,2.7h-.61s0,0-.07.05Z" transform="translate(-2.54 -1.96)"/><path class="cls-2" d="M19.44,2.74l-.68,0A3.74,3.74,0,0,0,19.44,2.74Z" transform="translate(-2.54 -1.96)"/><path class="cls-2" d="M17.34,2.84l1.42-.07A7.59,7.59,0,0,0,17.34,2.84Z" transform="translate(-2.54 -1.96)"/><path class="cls-2" d="M36.82,2.83l.19-.1A.28.28,0,0,0,36.82,2.83Z" transform="translate(-2.54 -1.96)"/><path class="cls-2" d="M41.9,2.8c-1.21,0-3-.21-4.73-.15L37,2.73C37.81,2.58,40.75,3,41.9,2.8Z" transform="translate(-2.54 -1.96)"/><path class="cls-2" d="M63.09,4.06,58.84,4c.74.11,1.72.26-.22.28C64,4.59,57.52,4,63.09,4.06Z" transform="translate(-2.54 -1.96)"/><path class="cls-2" d="M76.28,4.22c-2.29,0,0,.16-.09.22C77.64,4.34,78,4.32,76.28,4.22Z" transform="translate(-2.54 -1.96)"/><path class="cls-2" d="M171.6,4.22l-.23.26C173.14,4.44,171.39,4.38,171.6,4.22Z" transform="translate(-2.54 -1.96)"/><polygon class="cls-2" points="187.28 0.94 185.57 0.78 184.75 1.01 187.28 0.94"/><polygon class="cls-2" points="198.05 2.76 197.28 2.8 200.22 2.71 198.05 2.76"/><path class="cls-2" d="M360.69,4.63l-.54-.31C359,4.37,358.71,4.73,360.69,4.63Z" transform="translate(-2.54 -1.96)"/><path class="cls-2" d="M429.8,4.31a15.62,15.62,0,0,0,3.89.11C432.14,4.39,430.59,4.27,429.8,4.31Z" transform="translate(-2.54 -1.96)"/><polygon class="cls-2" points="634.53 2.86 633.14 2.97 635.76 2.88 634.53 2.86"/><path class="cls-2" d="M4.83,3.79c-.09-.29-.28-.13-.25.66L4.91,5Z" transform="translate(-2.54 -1.96)"/><path class="cls-2" d="M4.21,9.07c.16.92.45,2,.75,1.39-.32-.91-.19-1.14-.56-2.12,0-.79.1-1.37.22-1.24-.08-.28.08-1.22-.13-1.64a9.5,9.5,0,0,0-.06,3.67C4.36,9.42,4.27,9.14,4.21,9.07Z" transform="translate(-2.54 -1.96)"/><path class="cls-2" d="M3.7,85.82l0-.49A3.23,3.23,0,0,0,3.7,85.82Z" transform="translate(-2.54 -1.96)"/><path class="cls-2" d="M3.52,133.37c0-.36,0-.51-.07-.53C3.47,133.18,3.49,133.46,3.52,133.37Z" transform="translate(-2.54 -1.96)"/><path class="cls-2" d="M3.15,141.49c0-.17,0-.32,0-.47A1.56,1.56,0,0,0,3.15,141.49Z" transform="translate(-2.54 -1.96)"/><path class="cls-2" d="M3.7,85.82l-.11,1.27C3.7,87.18,3.67,86.44,3.7,85.82Z" transform="translate(-2.54 -1.96)"/><path class="cls-2" d="M5,19.65A3.5,3.5,0,0,0,4.92,19c0,.22,0,.43,0,.65Z" transform="translate(-2.54 -1.96)"/><path class="cls-2" d="M3.43,64.86v-.39a1.83,1.83,0,0,0-.14-.32Z" transform="translate(-2.54 -1.96)"/><path class="cls-2" d="M3.38,48.77c0,.36.27.49.39.63a1.84,1.84,0,0,1-.19-.79C3.52,48.6,3.46,48.65,3.38,48.77Z" transform="translate(-2.54 -1.96)"/><path class="cls-2" d="M3.87,23.26l0-.45C3.85,22.92,3.86,23.12,3.87,23.26Z" transform="translate(-2.54 -1.96)"/><path class="cls-2" d="M3.37,76.37a.33.33,0,0,0-.1.15S3.34,76.46,3.37,76.37Z" transform="translate(-2.54 -1.96)"/><path class="cls-2" d="M5.48,526.35H5.43C5.46,526.45,5.48,526.47,5.48,526.35Z" transform="translate(-2.54 -1.96)"/><path class="cls-2" d="M4.09,545l0-.26a.3.3,0,0,0-.15,0Z" transform="translate(-2.54 -1.96)"/><path class="cls-2" d="M2.79,156.35a.11.11,0,0,1,0-.06C2.76,155.9,2.77,156.12,2.79,156.35Z" transform="translate(-2.54 -1.96)"/><path class="cls-2" d="M3,292.76c.25-1.55.32,2.52.6.19C3.49,293.17,3.16,290.83,3,292.76Z" transform="translate(-2.54 -1.96)"/><path class="cls-2" d="M5,20.07v.66C5,20.43,5,20.23,5,20.07Z" transform="translate(-2.54 -1.96)"/><path class="cls-2" d="M3.6,293h0l0-.24C3.62,292.81,3.61,292.86,3.6,293Z" transform="translate(-2.54 -1.96)"/><path class="cls-2" d="M3,190.59a1.09,1.09,0,0,0,.12-.35S3,190.33,3,190.59Z" transform="translate(-2.54 -1.96)"/><path class="cls-2" d="M3.36,165.08l0,.63A5.18,5.18,0,0,0,3.36,165.08Z" transform="translate(-2.54 -1.96)"/><path class="cls-2" d="M3.36,203.83a5.32,5.32,0,0,0,0,.93.57.57,0,0,0,0-.14A2.16,2.16,0,0,1,3.36,203.83Z" transform="translate(-2.54 -1.96)"/><path class="cls-2" d="M3.36,217.62l.06-.26c0-.13,0-.29,0-.43Z" transform="translate(-2.54 -1.96)"/><path class="cls-2" d="M5.35,484.46a2.38,2.38,0,0,1-.26.64C5.29,484.88,5.36,486.91,5.35,484.46Z" transform="translate(-2.54 -1.96)"/><path class="cls-2" d="M4.85,19.66a.7.7,0,0,1,.13.41c0-.16,0-.31,0-.46S4.88,19.56,4.85,19.66Z" transform="translate(-2.54 -1.96)"/><path class="cls-2" d="M5.57,204.39l0,2.19C5.56,206,5.57,205.17,5.57,204.39Z" transform="translate(-2.54 -1.96)"/><path class="cls-2" d="M5.31,385.57l0,.51A2,2,0,0,0,5.31,385.57Z" transform="translate(-2.54 -1.96)"/><path class="cls-2" d="M5.57,213.08a9.57,9.57,0,0,0-.19,1.23,1.2,1.2,0,0,0,.07.26Z" transform="translate(-2.54 -1.96)"/><path class="cls-2" d="M5.09,485.1Z" transform="translate(-2.54 -1.96)"/><path class="cls-2" d="M5.76,499.53c0-2.09-.36-1-.58-1.43-.1-2.49.28-1.15.46-2-.09-1.55-.43-2.74-.42-3.9.06-.09.09-.32.16-.05-.29-1.65,0-4.88-.38-6.8a.65.65,0,0,1,.09-.25c-.18.31-.37.36-.51.3,0-.94-.23-1.74,0-2.09a1.82,1.82,0,0,0,.17.89l-.11-1c.35-.88.12,1.34.38,1.34-.11-1.92-.4-4.14-.3-5.61.34-.3.11,3.43.41,1.47L5,482.69c.54-1.73,0,1.38.54-.22.1-3-.17-3.33-.07-6.31-.19-.67-.28.23-.47-.44-.34-4.23.85-3.33.4-6.44A5.53,5.53,0,0,1,5,466l.38.75c0-2.88-.55-1.65-.29-4.67.15.54.13,2.27.17,1.83.31-2-.21-1.38-.21-2.89l.34-.31c-.06-3.07-.3-6.46-.37-9.87.11.19.21.78.32,0-.17-4.29,0-9.17.24-13.31l-.29-1.58c0-.37.13-.68.19-.28.11-1.62-.19-.09-.31-.86,0-.92.17-1.22.26-.64A71.93,71.93,0,0,1,5.19,423l.09.58c.12-2.33-.61-2.63-.33-4.8l0,.42c.13-5.08-.14-10.68.3-14.55-.42-.74.19-5-.4-5.35a58.55,58.55,0,0,0,.59-6.14c0-1.09-.36-1.63-.43-3l.31,0-.32-1.83.37-1-.08-1.26c0,.5-.14,1.07-.23,1a16.76,16.76,0,0,1,.37-4.86l-.26-4.67a5.57,5.57,0,0,1,.25,1.51c-.31-2.5.32-.46,0-2.74-.07.31-.19-.16-.25-.22a36.89,36.89,0,0,0,.11-5.64l.21.36c.06-3.46-.1-7.29-.1-11.18-.1,1.39-.46,1.07-.5-.07l.33-.45c-.2-.74-.13,1.19-.37-.32,0-1.45.37-1,.47-.15l-.11-1.76c.1-.1.15.31.27.42-.2-.73.33-3.05,0-4.09l.1-.1c0-3.89-.11-5.65-.13-8.81-.28-.07-.22-1.3-.45-2.25.09-2.32.31-4.9.29-7.71-.14-2-.24-.57-.4-1.46.25-.14.23-2.94.41-1.49,0-3.36,0-4.29-.26-8.55-.1.46-.15,1-.23.72,0-.78.1-1.76.23-1.65l0,.2c-.38-4.77.75-11,.21-14.82l0,.22-.28-3.95c0-1.81.2,1.09.35-.25-.42-4.25.07-6.72-.22-10.22.76-2.71,0-9.62.43-13.28l-.18.21c-.17-.94.1-1.14.15-1.84-.14.1-.16,1-.26.44-.22-8,.26-16.54.42-24.75,0-3-.92-1.7-.5-5.49l.33,1.07c-.39-6.06,0-12.39-.32-18.33a2.57,2.57,0,0,1,.18.95,14.32,14.32,0,0,0-.19-4.66c0-.92.18-.21.28-.78.14-1.26-.31-3.16-.07-3.83,0-.11.08.36.1.59-.12-.82,0-3.82-.25-3,.13-2.23-.12-4.26,0-6-.31-1.15.15-3.81-.29-4.18.45.16.37-3.9.15-5.31.14.47.14-1.22.33-.67,0-1.61-.09-3.08-.32-2.8.54-3-.43-5.95.26-7.62C5.27,189,5.1,184.54,5,180.24c.45.16,0,4.75.51,4.57-.18-4.08-.57-6.43-.46-10.47.06-1,.2.6.27.95-.18-4.07,0-7.87-.2-11.49a2.75,2.75,0,0,1,.12.77c0-.72.07-1.66-.14-1.58l.06.69c-.3,1.14-.62-2.83-.78-3,.59,1.21.15-3.58.89-1.65,0-.47-.14-1.06-.27-.95,0-.7.12-.92.27-.21-.11-2.56-.33-1.65-.32-4,.1,0,.13.48.25.72a18.4,18.4,0,0,1-.3-4.31c.06.12.14-.11.13.47,0-3.36-.51-5.73-.32-9.42.43,1.09.14-1.25.51-1.45l-.11-2-.18.8c0-1.74-.27-3.28-.14-4.77l.15,1.29L4.87,132l-.14,1.84c-.2-1.76-.48.19-.37-2.12,0,.47,0-1.74.22-2.65h0a13.81,13.81,0,0,1-.15-3c.12-.33.42.27.49,0-.31-.85-.08-4.07-.41-5.14.07.36.27.38.31.26l-.25-.71c.08-.81.12-.93.27-.8,0-2.42-.47.77-.27-2.1a5.33,5.33,0,0,1,.1.59c.11-2.89-.16-5.58,0-8.23.38-.78.1,2.32.41,1.42-.06-3.82-.45-7.91-.36-11.61l0,.69c-.53-.52.26-2.76,0-4.63,0,.46.3.6.24.48.08-2.54-.13-5.18-.3-9l.14.48c.12-1.5.07-3.94.13-5.55-.14-.48-.12-1.4-.31-.84.77-5-.42-9.49.23-13.9,0,.53.12,1.26.12.84l-.13-3.76c-.23.3-.14.49-.32,1.28a10.9,10.9,0,0,1-.24-2.46c.15,1.69.37,0,.5-.75-.07.12-.15-.13-.22-.06.41-2-.47-.33-.19-3l.12.14c-.06-1-.22-1.93-.19-3,.27-.45.13,1.07.35,1.14,0-1.52-.51-3-.24-4.38.07.65.07,1.58.15,2.22a11.75,11.75,0,0,0,.28-2.78v.11l.15-2.58-.09.66c-.7-1.9-.13-3.87-.58-6.43.43,2.49.25.41.55.6.08-.66.18-1.65.26-1.37-.24-1.21.2-2-.16-3.73.1-.07,0-1.29.25-1-.07-1.57-.17.37-.29.24-.33-2.42.41-5.7,0-9.19-.19-3-.52-3.57-.68-6.36.15-.94.35.77.35.77a21.51,21.51,0,0,0,0-4.09c.08.29.15,0,.26-.45,0-1.15-.35-.77-.21-2.28A4.57,4.57,0,0,1,4.92,19c-.08-1.35-.27-2.69-.35-4.09.17-.37.25.84.36,1.34a22.75,22.75,0,0,0-.42-4.57l-.1,1c0-.58.24-.3.29.13.21,1.35-.1,2-.2,2l-.06-1c-.57,1,.09,4,.06,6L4.08,19l.35,2.06c-.11.44-.34.74-.4-.25-.21,1.44.14,1.27-.08,2.51,0,.14-.06.08-.08,0L4,24.67c-.09-.28-.3.23-.24-.63-.24,2.53.32,4.07,0,5l0-.22c.14,3.51.31.34.67,3L3.64,33.6l.31.34c0,.36,0,1.08-.16,1,.21,1.34.14-.23.33.55-.27,1.74.13,4.8-.35,5.19.23.63.18-1.66.34.2-.52.53.09,2.15-.15,3.74-.27-.49-.13-2-.37-.41.46,1-.1,3.1,0,4.45.36.06.15,2.91.27,5.17-.12-.15-.2,4.24-.33,6.33l-.06-.06c.37.4.3,2.57.37,4.14-.22-.06-.3-.35-.4-1.2v1.48a6.46,6.46,0,0,1,.22,1.77l-.27-.37c0,2,.32,4,.14,6.5.25.14.71-2,.88.66-.14.1-.38.2-.43-.5a6.06,6.06,0,0,1,0,1.28l-.23-1.07c-.1,1.15.2.6.17,1.53-.19,0-.14.68-.29.55a7.45,7.45,0,0,0,0-1.16,13.51,13.51,0,0,1-.3,2.71c.11-.09.26,0,.29.76,0,2-.24.68-.34,1.83.14.47,0,1.73.29,1.76a1.71,1.71,0,0,1-.22.91c.13,1,0,4.76.35,3.61l0-.26s0,.11,0,.17h0c.29,3.34-.17,6.93,0,10.25h-.1c.11,2,.06,4.41.28,5.82,0,.58-.18,1.38-.3,1.13a21.06,21.06,0,0,1,0,3.87c-.17-1.52-.15.52-.13-1.56a19.57,19.57,0,0,0,0,4.52c-.25-.72-.32,1.48-.24,2.41l.18-1.38c0,1,0,2,0,2.91l-.33-.51c-.41,4,.69,7.25,0,10.31.23,1.07.16-2.18.44-1.23,0,1.85-.53,3.78-.53,4.36-.18,2.53.49,2.36.36,5,.12-.34.44-.66.55,1.33s-.5,2.27-.59,1.1c0-.44,0-.66.07-.64-.05-.59-.1-1.38-.23-.65l.12.24c-.12.92-.11,3.47-.3,2.87.11,1.4.19.6.25-.44-.17,2.38,0,3.71-.12,6.16.07-.39.21-.75.21-.36-.15,3.58.22,1.57.27,4-.18,1.38-.43-.49-.28,2-.12,1.5-.31.32-.41-.27a32,32,0,0,1-.19,5.43l-.1-1.17c.06.7.06,1.27.06,1.86l.24-.67c-.05.69-.05,1.27-.14,1.26.15.71.39-.55.6.86-.12.92.13,2.8-.18,3.12.1-2.89-.32.32-.37-2.13a11.29,11.29,0,0,1,0,1.74c0,.1-.06-.1-.08-.29-.28,2.77.36,1.27.35,4.14-.18-.37-.34.66-.3,1.13,0-1.16.3-.55.43.51a20.27,20.27,0,0,0,.09,3L3.42,164a10.53,10.53,0,0,1,.22,2.57c-.14.11-.1-1.17-.16-.71.31,1.42-.32,3.21-.11,5.2-.12.91-.34.08-.42.89.23,2.22-.24,2.41-.05,4.74.24-.67.18-.79.41.86l-.17-3.84.35,2.46c0-1.16-.15-2.44-.11-3.14.2,1.18.14,1,.33.5-.35,1.59.21,3.14,0,5l-.59-.06c-.26,2.75.3,4.89.15,8.47l.11-1.15a23.77,23.77,0,0,1,.13,3.37c-.2-.11-.27.62-.4,1.11.15-.06,0,2.62.38,2.94l-.26,1.6c-.1,2.89.57,3.3.5,6.07-.22-.83-.36.43-.51-1.43,0,.93,0,1.76.1,1.78-.12.54.27,2.57.08,3.42a3.63,3.63,0,0,1,.28,1.56c0,.11-.1,0-.1,0s.13,1.63.35.72c-.62,2.86,0,8-.48,10.47.06,2,.12,4.46.14,6.3-.06-.12-.1,0-.08-.35-.18,2.53.57,1.55.36,4.44-.32,1.47-.17-1.53-.29-.62-.65.4.09,3.48-.29,5.42l0-.47c-.22,1.49.25,3.62.2,6,0,0-.06-.12-.1,0a60.65,60.65,0,0,1,.54,7.13c-.26-.73-.14-1.06-.4-.62,0,1,.42-.3.49,1.78-.14.68-.26,2.18-.54,2.38v-2c-.36,1,0,2.54,0,3.58l-.16-.13c.05,3,.45,3,.42,6.29l.12-.33c.39,1.77-.22,1.48.07,3.25l-.4.54c.1,1.16.38,4.09.46,6.18-.3-1.18-.44-3.64-.62-5.15a30.07,30.07,0,0,0,.23,4.54,7.79,7.79,0,0,1-.08-1.52,27.27,27.27,0,0,1,.46,5.6c-.77-.41-.2,6-.79,7.69.28,4.08-.12,8.1-.08,12.86.6-1.69,0,1.39.63,1.09a8.08,8.08,0,0,1,0,1.63l-.36,3.36c-.18.8-.14-1.05-.27-.95-.05,2.43-.26,1-.43,2.62.22-.33.32.85.23,2.23l.29-1.95c.32,3.39-.52,2.93-.2,6.35l-.19-1.08c.12,1.75,0,6.47.49,8.19-.07.31-.24.72-.28-.06-.08,4.2.52,9.33.22,12.59L3,323.92a9.12,9.12,0,0,1,.13,2.34c-.06-.05-.15-.31-.16.05a19.14,19.14,0,0,1,.18,3.11l-.17-.88c-.2,4.09.41,6.27.51,9.7-.44,0-.58,3.21-.66,4.81L2.72,343c-.05,4.76.37,8.08.54,12.49-.48,2.74-.2,9.27-.47,13.67.08-.68.35.11.39.89-.09,1,.3,2.85-.1,2.69v-.37c-.4.78-.29,2.9-.3,4.55l.53.28c-.77,4.33.28,11.35-.41,13.71.13,1,.13,2.34.26,3.38l-.28-.06c-.07,2.9-.11,4.34,0,7.92l-.2-.73c0,2,.81,2.55.83,4.41l-.42.56c0,3.53-.37,7.09,0,10.57-.07,0-.19-.16-.21-.73,0,1.66-.28,6.42.3,5.81-.38,0,0,3.64.13,5.54l-.28-.3a14.85,14.85,0,0,1,.55,3.9c0,.54-.22.47-.15-.24-.15,1.77.26,1.38.11,3.53l-.17-.8a7.4,7.4,0,0,0,.28,2.68,10.54,10.54,0,0,1-.32,3.73,5.21,5.21,0,0,1,.28,2.31c-.09.15-.15-.24-.18-.44-.19,3.05.32,4.53.05,6.63-.09,0-.14.18-.17.35,0-2.42,0-4.37.05-4.19-.26,0-.31,2-.66.4a37.89,37.89,0,0,1,.49,6.16.92.92,0,0,1-.09.25l0-.19a6.64,6.64,0,0,0,0,1.2c0,.61-.08,1-.08,1.58a14.54,14.54,0,0,0-.13,3.21c.29-.08.24,1.2.47,0,0,.16,0-.18,0-.83,0-.14,0-.32,0-.41s0,0,0,.06c0-.64,0-1.47,0-2.42a7.28,7.28,0,0,1,.11,2.65c.18.5.37,1.05.45,1.36-.39,1.34-.6,3.91-.84,4.27.16,3,.1,7,.63,8.88a2.24,2.24,0,0,1-.23,1.29c-.06-.49,0-1.07-.12-1.34.13,1.7.05,5,.42,5.42-.17,2.13-.34-1.2-.28,1.73l-.12-.39c-.58,5.76.95,9.37.19,15.76a2.47,2.47,0,0,1,.13-.75c-.33,7.28.31,15-.22,22.2a11.67,11.67,0,0,0,.31,3.52l-.3.44.35,2.13C4,524,3,526.16,3.52,530l.2-.5c0,1.38.12,4.36-.11,4.13a1.64,1.64,0,0,1,.1,1l-.15,0L3.83,538c-.12,2.62-.63-.41-.66,3.41.06,1.42.46,4,.56,3.51s.1-1.46.26-1.51l.08,1.3c.47.24.95,1.24,1.27-2l-.28-2.23.22-.71,0,1.87a5.89,5.89,0,0,0-.11-2.49,2.1,2.1,0,0,0,.25-.93L5,536.12c.18-.26.36,1,.46-.49-.21-1-.41,1-.55-.71.22-1.06.39-.75.21-2,.12-.17.19.09.25.59A28,28,0,0,0,5.06,530c.26-1.11-.07-3.75.37-3.64a17.11,17.11,0,0,1-.36-3c.52,1.86,0-3.82.59-3.33-.47-1.38-.21-5-.47-7.43a1.89,1.89,0,0,1,.09.62,23.37,23.37,0,0,1,.27-2.65c-.39-.18-.48-2.32-.72-3.48.38-1.68.46,1,.82.5-.32.08-.32-2.93-.58-2.36.23-1.29.11-1.11.44-1.77-.49-.23-.09-1.2-.39-2.27.25-1.87.46-.48.31-2.53C5.58,497.7,5.76,499.53,5.76,499.53Zm-.85-48.74h0c0,.42,0,.78,0,1C4.93,451.59,4.92,451.3,4.91,450.79Zm0-4.1c0,.5,0,1.12,0,1.78-.1.14-.2,0-.2-.42C4.77,448.27,4.82,447.3,4.91,446.69ZM3,455.36c0-.65,0-.87.07-1,0,.31,0,.67,0,1.14,0,0,0,0,0,.07A.72.72,0,0,1,3,455.36Z" transform="translate(-2.54 -1.96)"/><path class="cls-2" d="M3.33,456.52c0,.1,0,.15,0,.27l.06-.39-.09-.23C3.32,456.29,3.32,456.41,3.33,456.52Z" transform="translate(-2.54 -1.96)"/><path class="cls-2" d="M3.74,85.24v.09a.6.6,0,0,1,0-.18A.63.63,0,0,0,3.74,85.24Z" transform="translate(-2.54 -1.96)"/><polygon class="cls-2" points="2.9 388.18 2.83 388.18 2.89 388.54 2.9 388.18"/><path class="cls-2" d="M4.71,62.68a1,1,0,0,0,.07-.29A1.13,1.13,0,0,0,4.71,62.68Z" transform="translate(-2.54 -1.96)"/><path class="cls-2" d="M4.77,52.94l.1-1.38C4.81,52.16,4.79,52.59,4.77,52.94Z" transform="translate(-2.54 -1.96)"/><path class="cls-2" d="M4.91,45.45a.33.33,0,0,0-.12-.15h0Z" transform="translate(-2.54 -1.96)"/><path class="cls-2" d="M5.24,164.57c0,.1,0,.2,0,.29C5.31,165.53,5.29,165.07,5.24,164.57Z" transform="translate(-2.54 -1.96)"/><path class="cls-2" d="M4.58,129.12c0,.37.11.75.14,1.14C4.74,129.63,4.74,129.14,4.58,129.12Z" transform="translate(-2.54 -1.96)"/><path class="cls-2" d="M5.58,204.15h0a1.92,1.92,0,0,1,0,.24Z" transform="translate(-2.54 -1.96)"/><path class="cls-2" d="M4.71,131.91a9.13,9.13,0,0,0,0-1.65A15.12,15.12,0,0,0,4.71,131.91Z" transform="translate(-2.54 -1.96)"/><path class="cls-2" d="M5,13v-.36s0,0,0,0Z" transform="translate(-2.54 -1.96)"/><path class="cls-2" d="M5,12.57l0-.4A1.32,1.32,0,0,0,5,12.57Z" transform="translate(-2.54 -1.96)"/><path class="cls-2" d="M4.9,11.32l.07.85A2.78,2.78,0,0,0,4.9,11.32Z" transform="translate(-2.54 -1.96)"/><path class="cls-2" d="M4.91,22.89,5,23C5,22.94,5,22.9,4.91,22.89Z" transform="translate(-2.54 -1.96)"/><path class="cls-2" d="M4.94,25.91a27.71,27.71,0,0,0,.15-2.81L5,23C5.16,23.48,4.77,25.22,4.94,25.91Z" transform="translate(-2.54 -1.96)"/><path class="cls-2" d="M3.68,38.49,3.76,36c-.11.44-.26,1-.28-.13C3.15,39,3.72,35.18,3.68,38.49Z" transform="translate(-2.54 -1.96)"/><path class="cls-2" d="M3.52,46.32c0-1.36-.16,0-.22-.06C3.4,47.12,3.42,47.33,3.52,46.32Z" transform="translate(-2.54 -1.96)"/><path class="cls-2" d="M3.52,102.91l-.26-.14C3.3,103.82,3.36,102.78,3.52,102.91Z" transform="translate(-2.54 -1.96)"/><polygon class="cls-2" points="2.3 111.77 2.46 110.75 2.22 110.26 2.3 111.77"/><polygon class="cls-2" points="0.47 118.16 0.44 117.7 0.53 119.44 0.47 118.16"/><path class="cls-2" d="M3.11,215.16l.31-.31C3.37,214.14,3,214,3.11,215.16Z" transform="translate(-2.54 -1.96)"/><path class="cls-2" d="M3.43,256.2a5.4,5.4,0,0,0-.1,2.31C3.35,257.59,3.47,256.67,3.43,256.2Z" transform="translate(-2.54 -1.96)"/><polygon class="cls-2" points="0.37 377.29 0.27 376.47 0.36 378.02 0.37 377.29"/><path class="cls-1" d="M915.77,337.9" transform="translate(-2.54 -1.96)"/><path class="cls-2" d="M915.59,544.79c.09.29.28.13.25-.66l-.34-.56Z" transform="translate(-2.54 -1.96)"/><path class="cls-2" d="M916.21,539.51c-.16-.92-.45-2-.75-1.39.32.92.18,1.14.56,2.12,0,.79-.1,1.37-.22,1.24.08.28-.08,1.22.13,1.64a9.49,9.49,0,0,0,.06-3.67C916.06,539.16,916.14,539.44,916.21,539.51Z" transform="translate(-2.54 -1.96)"/><path class="cls-2" d="M916.72,462.76l0,.49A3.23,3.23,0,0,0,916.72,462.76Z" transform="translate(-2.54 -1.96)"/><path class="cls-2" d="M916.9,415.21c0,.36,0,.51.07.53C917,415.4,916.93,415.13,916.9,415.21Z" transform="translate(-2.54 -1.96)"/><path class="cls-2" d="M917.27,407.09c0,.17,0,.32,0,.48A1.63,1.63,0,0,0,917.27,407.09Z" transform="translate(-2.54 -1.96)"/><path class="cls-2" d="M916.72,462.76l.11-1.27C916.72,461.4,916.75,462.14,916.72,462.76Z" transform="translate(-2.54 -1.96)"/><path class="cls-2" d="M915.41,528.93a4.52,4.52,0,0,0,.08.69l0-.65Z" transform="translate(-2.54 -1.96)"/><path class="cls-2" d="M917,483.72v.39a1.83,1.83,0,0,0,.14.32Z" transform="translate(-2.54 -1.96)"/><path class="cls-2" d="M917,499.81c0-.36-.27-.49-.39-.63a1.84,1.84,0,0,1,.19.79C916.9,500,917,499.93,917,499.81Z" transform="translate(-2.54 -1.96)"/><path class="cls-2" d="M916.55,525.32l0,.45C916.57,525.66,916.56,525.46,916.55,525.32Z" transform="translate(-2.54 -1.96)"/><path class="cls-2" d="M917.05,472.21a.33.33,0,0,0,.1-.15S917.08,472.12,917.05,472.21Z" transform="translate(-2.54 -1.96)"/><path class="cls-2" d="M914.94,22.23s0,0,0,0S914.94,22.11,914.94,22.23Z" transform="translate(-2.54 -1.96)"/><path class="cls-2" d="M916.33,3.58l0,.26a.3.3,0,0,0,.15.05Z" transform="translate(-2.54 -1.96)"/><path class="cls-2" d="M917.63,392.23a.11.11,0,0,1,0,.06C917.65,392.68,917.65,392.46,917.63,392.23Z" transform="translate(-2.54 -1.96)"/><path class="cls-2" d="M917.42,255.82c-.25,1.55-.32-2.51-.6-.19C916.93,255.42,917.26,257.75,917.42,255.82Z" transform="translate(-2.54 -1.96)"/><path class="cls-2" d="M915.44,528.51v-.66C915.43,528.15,915.43,528.35,915.44,528.51Z" transform="translate(-2.54 -1.96)"/><path class="cls-2" d="M916.82,255.63h0l0,.24C916.8,255.77,916.81,255.72,916.82,255.63Z" transform="translate(-2.54 -1.96)"/><path class="cls-2" d="M917.46,358a1.09,1.09,0,0,0-.12.35S917.4,358.25,917.46,358Z" transform="translate(-2.54 -1.96)"/><path class="cls-2" d="M917.06,383.5l0-.63A5.18,5.18,0,0,0,917.06,383.5Z" transform="translate(-2.54 -1.96)"/><path class="cls-2" d="M917.06,344.75a5.28,5.28,0,0,0,0-.93.57.57,0,0,0,0,.14A2.16,2.16,0,0,1,917.06,344.75Z" transform="translate(-2.54 -1.96)"/><path class="cls-2" d="M917.06,331l-.06.26c0,.14,0,.29,0,.44Z" transform="translate(-2.54 -1.96)"/><path class="cls-2" d="M915.07,64.12a2.38,2.38,0,0,1,.26-.64C915.13,63.7,915.06,61.67,915.07,64.12Z" transform="translate(-2.54 -1.96)"/><path class="cls-2" d="M915.57,528.92a.64.64,0,0,1-.13-.41c0,.16,0,.31,0,.46S915.54,529,915.57,528.92Z" transform="translate(-2.54 -1.96)"/><path class="cls-2" d="M914.85,344.19l0-2.19C914.86,342.61,914.85,343.41,914.85,344.19Z" transform="translate(-2.54 -1.96)"/><path class="cls-2" d="M915.11,163l0-.51A2,2,0,0,0,915.11,163Z" transform="translate(-2.54 -1.96)"/><path class="cls-2" d="M914.85,335.5a9.57,9.57,0,0,0,.19-1.23A1.38,1.38,0,0,0,915,334Z" transform="translate(-2.54 -1.96)"/><path class="cls-2" d="M915.33,63.48Z" transform="translate(-2.54 -1.96)"/><path class="cls-2" d="M914.66,49.05c0,2.09.36,1,.58,1.43.1,2.49-.28,1.15-.47,2,.1,1.55.44,2.74.43,3.9-.06.09-.09.32-.16,0,.29,1.65,0,4.88.38,6.8a.65.65,0,0,1-.09.25c.18-.31.37-.36.51-.3,0,.94.23,1.74,0,2.09a1.82,1.82,0,0,0-.17-.89l.11,1c-.35.89-.12-1.34-.38-1.34.11,1.92.4,4.14.3,5.61-.34.3-.11-3.43-.41-1.47l.13-2.27c-.54,1.73,0-1.38-.54.22-.1,3,.17,3.33.07,6.31.19.67.28-.22.47.44.34,4.23-.85,3.33-.4,6.44a5.53,5.53,0,0,1,.43,3.33l-.38-.75c0,2.89.55,1.65.29,4.67-.15-.54-.13-2.27-.17-1.83-.31,2,.21,1.38.21,2.89l-.34.31c.06,3.08.3,6.46.36,9.87-.1-.19-.2-.78-.31,0,.17,4.29,0,9.17-.24,13.31l.29,1.58c0,.37-.13.68-.19.29-.11,1.61.19.08.31.86s-.17,1.21-.26.63a73.2,73.2,0,0,1,.22,11.11l-.09-.58c-.12,2.33.6,2.63.33,4.8l-.05-.41c-.13,5.07.14,10.67-.3,14.54.42.74-.19,5,.4,5.35a61.13,61.13,0,0,0-.6,6.15c0,1.08.37,1.62.43,3l-.3,0,.32,1.83-.37,1,.08,1.26c0-.5.14-1.07.23-1a16.26,16.26,0,0,1-.38,4.86l.27,4.67a5.57,5.57,0,0,1-.25-1.51c.31,2.5-.32.46,0,2.74.07-.31.19.17.25.22a36.89,36.89,0,0,0-.11,5.64l-.21-.36c-.06,3.46.1,7.3.1,11.18.09-1.39.46-1.07.5.07l-.33.45c.2.74.13-1.19.37.32,0,1.46-.37,1-.47.15l.11,1.76c-.1.1-.15-.31-.27-.42.2.73-.33,3.05,0,4.09l-.1.1c0,3.89.11,5.65.13,8.82.28.06.22,1.29.45,2.24-.09,2.32-.32,4.9-.29,7.71.14,2,.24.57.4,1.46-.25.14-.23,2.94-.41,1.49,0,3.36.05,4.29.26,8.55.1-.46.15-1,.23-.71.05.77-.1,1.75-.23,1.64l0-.2c.38,4.77-.75,11-.22,14.82l0-.22.28,4c-.05,1.81-.2-1.09-.35.25.42,4.25-.07,6.72.22,10.22-.76,2.71,0,9.62-.43,13.28l.18-.21c.17.95-.1,1.14-.15,1.84.14-.1.16-1,.26-.44.22,8-.26,16.54-.42,24.75,0,3,.92,1.71.5,5.49l-.33-1.07c.39,6.06,0,12.39.32,18.33a2.57,2.57,0,0,1-.18-.95,14.32,14.32,0,0,0,.19,4.66c0,.93-.18.22-.28.78-.14,1.26.31,3.16.07,3.83,0,.11-.08-.35-.1-.58.12.81,0,3.81.25,3-.13,2.23.12,4.26,0,6,.31,1.15-.15,3.81.29,4.18-.45-.16-.37,3.9-.15,5.31-.14-.47-.15,1.22-.33.67,0,1.61.09,3.08.32,2.8-.54,3,.43,5.95-.26,7.62.24,4.77.41,9.19.51,13.49-.45-.16,0-4.75-.52-4.57.19,4.08.58,6.43.47,10.47-.06,1-.2-.6-.27-.95.18,4.07,0,7.87.2,11.49a2.75,2.75,0,0,1-.12-.77c0,.72-.07,1.66.14,1.58l-.06-.69c.3-1.14.62,2.83.78,3-.59-1.21-.15,3.58-.89,1.65,0,.47.14,1.06.27.95,0,.7-.12.92-.27.21.11,2.56.33,1.65.32,4-.1,0-.14-.48-.25-.72a18.45,18.45,0,0,1,.3,4.31c-.06-.12-.14.11-.14-.47,0,3.36.52,5.73.33,9.42-.43-1.09-.14,1.25-.51,1.45l.11,2,.18-.8c0,1.74.27,3.28.14,4.77l-.15-1.29.07,3.25.14-1.84c.19,1.76.47-.19.37,2.13,0-.47,0,1.73-.22,2.64h0a13.81,13.81,0,0,1,.15,3c-.12.33-.42-.27-.5-.05.32.85.09,4.07.42,5.14-.07-.36-.27-.38-.31-.26l.25.71c-.08.81-.12.93-.27.8-.05,2.42.47-.77.27,2.1a5.33,5.33,0,0,1-.1-.59c-.11,2.89.16,5.58,0,8.23-.37.78-.09-2.32-.4-1.42.06,3.82.45,7.91.36,11.61l0-.69c.53.52-.26,2.76,0,4.63,0-.46-.3-.6-.24-.48-.08,2.54.13,5.18.3,9l-.14-.47c-.12,1.49-.07,3.93-.13,5.54.14.48.11,1.4.31.84-.77,5,.42,9.49-.23,13.9,0-.53-.12-1.26-.12-.84l.13,3.76c.23-.3.14-.49.32-1.28a10.9,10.9,0,0,1,.24,2.46c-.15-1.69-.37,0-.5.75.07-.12.15.13.22.06-.41,2,.47.33.19,3l-.12-.14c.06,1,.22,1.93.19,3-.27.45-.13-1.07-.35-1.14,0,1.52.51,3,.24,4.38-.07-.65-.07-1.58-.15-2.22a11.75,11.75,0,0,0-.28,2.78v-.11l-.15,2.58.09-.66c.7,1.9.13,3.87.58,6.43-.43-2.49-.25-.41-.55-.6-.08.66-.18,1.65-.26,1.37.24,1.21-.2,2,.16,3.73-.1.07,0,1.29-.25,1,.07,1.57.17-.37.29-.24.33,2.42-.41,5.7,0,9.19.19,3,.52,3.57.68,6.36-.15.94-.35-.77-.35-.77a21.51,21.51,0,0,0,0,4.09c-.08-.29-.16,0-.27.45,0,1.15.36.77.22,2.29a5.06,5.06,0,0,1-.4-1.15c.09,1.35.28,2.69.36,4.09-.17.38-.25-.84-.36-1.34a22.75,22.75,0,0,0,.42,4.57l.09-1c0,.58-.23.3-.28-.13-.21-1.35.1-1.94.2-2l.06,1c.57-1-.09-4-.06-6l.42.84-.35-2.06c.11-.44.34-.74.4.25.21-1.44-.15-1.27.08-2.51,0-.14.06-.08.08.05l-.13-1.41c.09.28.3-.23.24.63.24-2.52-.32-4.07,0-5l0,.22c-.14-3.51-.3-.34-.66-3l.75-1.78-.3-.34c0-.36,0-1.08.16-.95-.21-1.34-.14.23-.34-.55.28-1.74-.13-4.8.36-5.19-.23-.63-.18,1.66-.34-.2.52-.53-.09-2.15.15-3.74.27.49.13,2,.37.41-.46-1,.1-3.1,0-4.45-.36-.06-.15-2.91-.27-5.17.12.15.2-4.23.33-6.33l.06.06c-.37-.4-.3-2.57-.37-4.14.22.06.3.35.4,1.2v-1.48a6.46,6.46,0,0,1-.22-1.77l.27.37c0-2-.32-4-.14-6.5-.25-.14-.71,2-.88-.66.14-.1.37-.2.43.5a6.06,6.06,0,0,1-.05-1.28l.23,1.07c.1-1.15-.2-.6-.17-1.53.19,0,.14-.68.29-.55a7.45,7.45,0,0,0,0,1.16,12.8,12.8,0,0,1,.3-2.71c-.11.09-.27,0-.29-.76,0-2,.24-.68.34-1.83-.14-.47,0-1.73-.29-1.76A1.71,1.71,0,0,1,917,467c-.13-1,0-4.76-.35-3.61l0,.26c0-.05,0-.1,0-.16h0c-.29-3.34.17-6.94,0-10.26h.1c-.11-2-.06-4.41-.28-5.82,0-.58.18-1.38.3-1.13a21.06,21.06,0,0,1,0-3.87c.17,1.53.15-.52.12,1.56a19,19,0,0,0,0-4.52c.25.72.32-1.48.24-2.41l-.18,1.38c0-1.05,0-2,0-2.91l.33.51c.4-4-.69-7.25,0-10.31-.23-1.07-.16,2.18-.44,1.23,0-1.85.53-3.78.53-4.36.18-2.53-.49-2.36-.36-5-.12.34-.44.66-.55-1.33s.5-2.27.59-1.1c0,.44,0,.66-.07.64,0,.6.1,1.38.23.65l-.12-.24c.12-.92.11-3.47.3-2.87-.11-1.4-.19-.6-.25.44.17-2.38,0-3.71.12-6.15-.07.38-.21.74-.21.36.15-3.59-.22-1.58-.28-4,.19-1.38.44.49.29-1.95.12-1.5.31-.32.41.27a32,32,0,0,1,.19-5.43l.09,1.17c0-.7,0-1.27,0-1.86l-.24.67c0-.69,0-1.27.14-1.26-.15-.71-.39.55-.6-.86.12-.92-.13-2.8.18-3.12-.1,2.89.32-.32.37,2.13a12.52,12.52,0,0,1,0-1.74c0-.1.07.1.09.29.28-2.77-.36-1.27-.35-4.14.18.37.34-.66.3-1.13,0,1.16-.3.55-.43-.51a20.27,20.27,0,0,0-.09-2.95l-.07,1.09a11.28,11.28,0,0,1-.21-2.57c.14-.11.1,1.17.16.71-.31-1.42.32-3.21.11-5.19.12-.92.34-.09.42-.9-.23-2.22.24-2.41,0-4.74-.24.67-.18.79-.41-.85l.17,3.83-.35-2.46c0,1.16.15,2.45.11,3.14-.2-1.17-.14-1.05-.33-.5.35-1.58-.21-3.14,0-5l.59.06c.26-2.75-.3-4.89-.16-8.47l-.1,1.15a23.77,23.77,0,0,1-.13-3.37c.2.11.27-.62.4-1.11-.15.06,0-2.62-.38-2.94l.26-1.6c.1-2.89-.57-3.3-.5-6.07.21.83.35-.43.51,1.43,0-.93,0-1.76-.1-1.77.12-.55-.27-2.58-.08-3.43a3.63,3.63,0,0,1-.28-1.56c0-.11.1,0,.1,0s-.13-1.63-.35-.72c.62-2.86,0-8,.48-10.47-.06-2-.13-4.46-.14-6.3.06.12.1,0,.08.35.18-2.53-.57-1.55-.36-4.44.32-1.47.17,1.53.29.62.65-.4-.09-3.48.29-5.42l0,.47c.22-1.49-.25-3.62-.2-6.05,0,0,.06.12.1,0a60.65,60.65,0,0,1-.54-7.13c.26.73.14,1.06.4.62,0-1-.42.31-.49-1.78.14-.68.26-2.18.54-2.38v2c.36-1,0-2.54.05-3.58l.16.13c-.05-3-.45-3.05-.42-6.29l-.12.33c-.39-1.77.22-1.48-.07-3.25l.4-.53c-.1-1.17-.38-4.1-.46-6.19.29,1.18.44,3.64.62,5.15A30.15,30.15,0,0,0,917,283a7.79,7.79,0,0,1,.08,1.52,27.27,27.27,0,0,1-.46-5.6c.77.41.19-6,.79-7.69-.28-4.08.12-8.1.07-12.86-.59,1.69,0-1.39-.62-1.09a8.08,8.08,0,0,1,0-1.63l.36-3.36c.18-.8.14,1.05.27.95,0-2.43.26-1,.43-2.62-.22.33-.32-.85-.23-2.23l-.29,2c-.32-3.39.52-2.93.19-6.35l.2,1.08c-.12-1.75,0-6.47-.49-8.19.07-.31.24-.72.28.06.08-4.2-.52-9.33-.22-12.59l.15.32a9.12,9.12,0,0,1-.13-2.34c.06.05.15.31.16,0a19.14,19.14,0,0,1-.18-3.11l.17.88c.2-4.08-.41-6.27-.51-9.7.44,0,.58-3.21.65-4.81l.07.05c0-4.76-.37-8.08-.54-12.49.48-2.74.2-9.27.47-13.67-.08.68-.35-.1-.39-.89.09-1-.31-2.85.1-2.69v.37c.4-.78.29-2.9.3-4.55l-.53-.28c.77-4.33-.28-11.34.41-13.71-.13-1-.13-2.34-.26-3.37l.28,0c.07-2.89.11-4.34,0-7.92l.2.73c0-2-.81-2.55-.83-4.41l.42-.56c0-3.53.37-7.09,0-10.57.07,0,.19.16.21.73,0-1.66.28-6.42-.3-5.81.38,0,0-3.64-.13-5.54l.28.3a14.85,14.85,0,0,1-.55-3.9c0-.53.22-.47.15.24.15-1.77-.26-1.38-.12-3.53l.18.8a7.4,7.4,0,0,0-.28-2.68,10.54,10.54,0,0,1,.32-3.73,5.21,5.21,0,0,1-.28-2.31c.09-.15.15.24.18.44.19-3-.32-4.53,0-6.62.09-.05.14-.18.17-.36,0,2.42,0,4.37,0,4.19.26,0,.31-2,.66-.4a37.89,37.89,0,0,1-.49-6.16.92.92,0,0,1,.09-.25l0,.2a5.94,5.94,0,0,0,0-1.21c.05-.61.08-1,.08-1.58a15.2,15.2,0,0,0,.13-3.21c-.29.08-.24-1.2-.47,0,0-.16,0,.18,0,.83a3.88,3.88,0,0,0,0,.41.11.11,0,0,1,0-.06c0,.64,0,1.47,0,2.42a7.28,7.28,0,0,1-.11-2.65c-.18-.5-.37-1.05-.45-1.36.39-1.34.6-3.91.84-4.27-.16-3-.1-7-.63-8.88a2.24,2.24,0,0,1,.23-1.29c.06.49,0,1.07.12,1.34-.13-1.7,0-5-.42-5.42.17-2.13.34,1.2.28-1.73l.11.39c.59-5.76-.94-9.37-.18-15.76a2.47,2.47,0,0,1-.13.75c.33-7.28-.31-15,.22-22.2a11.67,11.67,0,0,0-.31-3.52l.3-.44-.35-2.13c-.25-3,.74-5.24.26-9.07l-.2.5c0-1.38-.12-4.36.11-4.13a1.64,1.64,0,0,1-.1-1l.15,0-.27-3.38c.12-2.61.63.41.66-3.41-.06-1.42-.46-4-.57-3.51s-.09,1.47-.25,1.51l-.08-1.3c-.47-.24-1-1.24-1.27,2L915.36,8l-.22.71,0-1.87a5.89,5.89,0,0,0,.11,2.49,2.1,2.1,0,0,0-.25.93l.44,2.18c-.18.27-.36-1-.46.49.21,1,.41-1,.55.71-.22,1.06-.39.75-.21,2-.12.17-.19-.09-.25-.58a28,28,0,0,0,.31,3.51c-.26,1.11.07,3.75-.37,3.64a18.17,18.17,0,0,1,.36,3c-.52-1.86,0,3.82-.59,3.33.47,1.38.21,5,.47,7.43a1.89,1.89,0,0,1-.09-.62,23.37,23.37,0,0,1-.27,2.65c.39.18.48,2.32.72,3.48-.38,1.68-.46-1-.82-.5.32-.08.32,2.93.58,2.36-.23,1.29-.11,1.11-.44,1.77.49.23.08,1.2.39,2.27-.25,1.87-.46.48-.31,2.53C914.84,50.88,914.66,49.05,914.66,49.05Zm.85,48.74h0c0-.42,0-.78,0-1C915.49,97,915.5,97.29,915.51,97.79Zm0,4.1c0-.5,0-1.12,0-1.78.1-.14.2,0,.2.43C915.65,100.31,915.6,101.28,915.51,101.89Zm2-8.67c0,.65,0,.87-.07,1,0-.31,0-.67,0-1.14a.49.49,0,0,1,0-.07A.72.72,0,0,1,917.46,93.22Z" transform="translate(-2.54 -1.96)"/><path class="cls-2" d="M917.09,92.06c0-.09,0-.15,0-.27l-.06.39.09.23C917.1,92.29,917.09,92.17,917.09,92.06Z" transform="translate(-2.54 -1.96)"/><path class="cls-2" d="M916.68,463.34v-.09a.78.78,0,0,1,0,.19Z" transform="translate(-2.54 -1.96)"/><polygon class="cls-2" points="912.43 156.48 912.5 156.48 912.44 156.12 912.43 156.48"/><path class="cls-2" d="M915.71,485.9a1,1,0,0,0-.07.3A1.44,1.44,0,0,0,915.71,485.9Z" transform="translate(-2.54 -1.96)"/><path class="cls-2" d="M915.65,495.64l-.1,1.38C915.61,496.43,915.63,496,915.65,495.64Z" transform="translate(-2.54 -1.96)"/><path class="cls-2" d="M915.51,503.14a.35.35,0,0,0,.12.14h0Z" transform="translate(-2.54 -1.96)"/><path class="cls-2" d="M915.18,384c0-.1,0-.2,0-.29C915.11,383.05,915.13,383.51,915.18,384Z" transform="translate(-2.54 -1.96)"/><path class="cls-2" d="M915.84,419.46c-.06-.37-.11-.74-.14-1.14C915.68,419,915.68,419.44,915.84,419.46Z" transform="translate(-2.54 -1.96)"/><path class="cls-2" d="M914.84,344.43h0a1.92,1.92,0,0,1,0-.24Z" transform="translate(-2.54 -1.96)"/><path class="cls-2" d="M915.71,416.67a9.13,9.13,0,0,0,0,1.65A15.11,15.11,0,0,0,915.71,416.67Z" transform="translate(-2.54 -1.96)"/><path class="cls-2" d="M915.38,535.61V536s0,0,0,0Z" transform="translate(-2.54 -1.96)"/><path class="cls-2" d="M915.41,536l0,.4A1,1,0,0,0,915.41,536Z" transform="translate(-2.54 -1.96)"/><path class="cls-2" d="M915.52,537.26l-.07-.85A2.78,2.78,0,0,0,915.52,537.26Z" transform="translate(-2.54 -1.96)"/><path class="cls-2" d="M915.51,525.69l-.1-.11C915.43,525.64,915.46,525.68,915.51,525.69Z" transform="translate(-2.54 -1.96)"/><path class="cls-2" d="M915.48,522.68a24.74,24.74,0,0,0-.15,2.8l.08.1C915.26,525.1,915.65,523.36,915.48,522.68Z" transform="translate(-2.54 -1.96)"/><path class="cls-2" d="M916.74,510.1l-.08,2.52c.11-.44.25-1,.28.13C917.27,509.56,916.7,513.4,916.74,510.1Z" transform="translate(-2.54 -1.96)"/><path class="cls-2" d="M916.9,502.26c.05,1.36.16,0,.22.06C917,501.46,917,501.25,916.9,502.26Z" transform="translate(-2.54 -1.96)"/><path class="cls-2" d="M916.9,445.67l.26.14C917.12,444.76,917.06,445.8,916.9,445.67Z" transform="translate(-2.54 -1.96)"/><polygon class="cls-2" points="913.03 432.89 912.88 433.91 913.11 434.39 913.03 432.89"/><polygon class="cls-2" points="914.86 426.5 914.89 426.96 914.8 425.21 914.86 426.5"/><path class="cls-2" d="M917.31,333.42l-.32.31C917.05,334.44,917.4,334.59,917.31,333.42Z" transform="translate(-2.54 -1.96)"/><path class="cls-2" d="M917,292.38a5.4,5.4,0,0,0,.1-2.31C917.07,291,917,291.91,917,292.38Z" transform="translate(-2.54 -1.96)"/><polygon class="cls-2" points="914.96 167.37 915.06 168.19 914.98 166.64 914.96 167.37"/><path class="cls-2" d="M4.65,543.92c-.48.08-.21.28,1.11.24l.94-.33Z" transform="translate(-2.54 -1.96)"/><path class="cls-2" d="M13.54,544.53c1.56-.16,3.35-.44,2.34-.75-1.54.32-1.91.19-3.57.57-1.32,0-2.31-.11-2.08-.23a23.52,23.52,0,0,0-2.77.13,26.75,26.75,0,0,0,6.18.06C14.13,544.38,13.65,544.47,13.54,544.53Z" transform="translate(-2.54 -1.96)"/><path class="cls-2" d="M142.82,545l-.83,0C142.21,545,142.5,545,142.82,545Z" transform="translate(-2.54 -1.96)"/><path class="cls-2" d="M222.92,545.23a2.88,2.88,0,0,0-.9.07A3.25,3.25,0,0,0,222.92,545.23Z" transform="translate(-2.54 -1.96)"/><path class="cls-2" d="M236.6,545.59l-.81,0A3.8,3.8,0,0,0,236.6,545.59Z" transform="translate(-2.54 -1.96)"/><path class="cls-2" d="M142.82,545l2.14.11A9,9,0,0,0,142.82,545Z" transform="translate(-2.54 -1.96)"/><path class="cls-2" d="M31.37,543.73c-.45,0-.82,0-1.16.09l1.09,0Z" transform="translate(-2.54 -1.96)"/><path class="cls-2" d="M107.51,545.31h-.65l-.54.14Z" transform="translate(-2.54 -1.96)"/><path class="cls-2" d="M80.41,545.36a1.6,1.6,0,0,0,1.06-.39,4.76,4.76,0,0,1-1.33.19C80.13,545.22,80.21,545.28,80.41,545.36Z" transform="translate(-2.54 -1.96)"/><path class="cls-2" d="M37.44,544.87l-.76,0Z" transform="translate(-2.54 -1.96)"/><path class="cls-2" d="M126.91,545.37a.45.45,0,0,0,.24.1S127.06,545.41,126.91,545.37Z" transform="translate(-2.54 -1.96)"/><path class="cls-2" d="M884.85,543.26s0,0,0,0C885,543.28,885.05,543.26,884.85,543.26Z" transform="translate(-2.54 -1.96)"/><path class="cls-2" d="M916.26,544.65l-.44,0c0,.05-.09.1-.09.16Z" transform="translate(-2.54 -1.96)"/><path class="cls-2" d="M261.62,546h-.11C260.85,546,261.23,546,261.62,546Z" transform="translate(-2.54 -1.96)"/><path class="cls-2" d="M491.39,545.74c-2.61-.25,4.23-.32.31-.6C492.07,545.25,488.14,545.58,491.39,545.74Z" transform="translate(-2.54 -1.96)"/><path class="cls-2" d="M32.07,543.77h1.11C32.68,543.75,32.33,543.76,32.07,543.77Z" transform="translate(-2.54 -1.96)"/><path class="cls-2" d="M491.7,545.14h0l-.4,0Z" transform="translate(-2.54 -1.96)"/><path class="cls-2" d="M319.29,545.78a2.73,2.73,0,0,0-.59-.12S318.86,545.72,319.29,545.78Z" transform="translate(-2.54 -1.96)"/><path class="cls-2" d="M276.33,545.38l1.06,0C277,545.39,276.63,545.39,276.33,545.38Z" transform="translate(-2.54 -1.96)"/><path class="cls-2" d="M341.6,545.39a12.82,12.82,0,0,0,1.56,0l-.24,0A6.48,6.48,0,0,1,341.6,545.39Z" transform="translate(-2.54 -1.96)"/><path class="cls-2" d="M364.82,545.38l-.43,0h-.74Z" transform="translate(-2.54 -1.96)"/><path class="cls-2" d="M814.29,543.4a5.68,5.68,0,0,1,1.07.25C815,543.45,818.41,543.38,814.29,543.4Z" transform="translate(-2.54 -1.96)"/><path class="cls-2" d="M31.38,543.89a1.63,1.63,0,0,1,.69-.12H31.3C31.23,543.82,31.22,543.86,31.38,543.89Z" transform="translate(-2.54 -1.96)"/><path class="cls-2" d="M342.54,543.17l3.69,0C345.2,543.18,343.86,543.17,342.54,543.17Z" transform="translate(-2.54 -1.96)"/><path class="cls-2" d="M647.72,543.44l.85,0A5.31,5.31,0,0,0,647.72,543.44Z" transform="translate(-2.54 -1.96)"/><path class="cls-2" d="M357.18,543.17c.66.1,1.35.15,2.07.19a3.21,3.21,0,0,0,.43-.07Z" transform="translate(-2.54 -1.96)"/><path class="cls-2" d="M815.37,543.65h0Z" transform="translate(-2.54 -1.96)"/><path class="cls-2" d="M839.66,543c-3.51,0-1.65.37-2.39.58-4.2.1-1.94-.27-3.37-.46-2.62.09-4.63.43-6.58.42-.15-.06-.53-.08-.08-.16-2.77.29-8.23,0-11.45.38a1.49,1.49,0,0,1-.42-.09c.52.19.6.38.49.51a15.59,15.59,0,0,1-3.51,0,5.27,5.27,0,0,0,1.49-.16l-1.65.1c-1.48-.35,2.26-.12,2.26-.38-3.22.12-7,.4-9.44.31-.52-.34,5.77-.12,2.47-.42l3.82.13c-2.92-.54,2.32,0-.36-.54-5-.1-5.62.18-10.63.08-1.13.19.37.28-.75.46-7.13.34-5.61-.85-10.85-.4a15,15,0,0,1-5.61.43l1.28-.38c-4.87,0-2.78.55-7.87.29.9-.15,3.82-.13,3.08-.17-3.3-.3-2.33.22-4.87.22l-.52-.34c-5.18,0-10.89.3-16.62.36.32-.1,1.3-.21,0-.31-7.23.17-15.44,0-22.42-.25l-2.66.3c-.62,0-1.15-.14-.48-.19-2.72-.11-.14.18-1.45.3-1.55,0-2-.17-1.06-.26-4.8.25-13.67.54-18.73.22l1-.08c-3.94-.12-4.44.6-8.09.32l.7,0c-8.55-.13-18,.14-24.51-.3-1.24.42-8.45-.19-9,.4-4.88-.29-3.48-.4-10.35-.59-1.84,0-2.74.37-5,.43l-.05-.31-3.08.32-1.64-.37-2.13.08c.85,0,1.8.14,1.67.23a45.83,45.83,0,0,1-8.18-.37l-7.86.26a14.92,14.92,0,0,1,2.53-.25c-4.2.32-.76-.32-4.61,0,.51.07-.28.18-.37.24-1.91-.18-6.28-.19-9.51-.11l.62-.21c-5.83,0-12.29.1-18.84.1,2.35.1,1.81.47-.11.5l-.77-.32c-1.24.2,2,.12-.54.36-2.44,0-1.64-.37-.24-.47l-3,.11c-.18-.1.52-.15.7-.27-1.22.2-5.13-.33-6.89,0l-.17-.09c-6.54,0-9.51.11-14.84.12-.1.28-2.19.22-3.77.45-3.92-.09-8.27-.31-13-.29-3.32.14-1,.24-2.46.41-.24-.26-5-.24-2.51-.42-5.67,0-7.24,0-14.4.26.78.1,1.65.15,1.2.24a7.74,7.74,0,0,1-2.77-.23l.34,0c-8,.38-18.56-.75-25-.21l.36,0-6.65.28c-3.05,0,1.84-.19-.42-.35-7.17.43-11.32-.06-17.22.22-4.57-.75-16.2.05-22.37-.43l.36.18a13.94,13.94,0,0,1-3.1-.14c.16.14,1.73.16.74.25-13.5.22-27.85-.26-41.69-.42-5.06,0-2.87.92-9.25.5l1.81-.33c-10.21.39-20.88,0-30.87.32a6.81,6.81,0,0,1,1.58-.17,41.37,41.37,0,0,0-7.84.18c-1.56,0-.36-.18-1.32-.28-2.12-.14-5.31.31-6.44.07-.19,0,.6-.08,1-.09-1.38.11-6.43,0-5.11.24-3.75-.13-7.17.13-10.17,0-1.95.31-6.42-.15-7,.29.27-.45-6.57-.36-8.95-.15.8-.14-2.06-.14-1.13-.33-2.71,0-5.19.09-4.72.32-5-.54-10,.44-12.83-.26-8,.25-15.48.41-22.71.52.26-.46,8,0,7.68-.52-6.86.18-10.82.57-17.63.46-1.76-.06,1-.19,1.6-.27-6.86.18-13.26,0-19.36.2a9.1,9.1,0,0,1,1.3-.12c-1.2,0-2.8-.06-2.66.14l1.17-.06c1.92.3-4.77.63-5,.78,2-.58-6-.14-2.78-.89-.79,0-1.79.14-1.6.28-1.18,0-1.55-.12-.36-.28-4.31.11-2.78.33-6.68.32a9.71,9.71,0,0,1,1.21-.25,51.76,51.76,0,0,1-7.26.3c.2-.06-.18-.13.8-.13-5.66,0-9.65.51-15.87.33,1.84-.44-2.11-.15-2.44-.52l-3.34.11,1.34.18c-2.92,0-5.51.27-8,.15l2.18-.16-5.48.07,3.1.15c-3,.19.32.47-3.58.36.79,0-2.93,0-4.45-.22h0a37.24,37.24,0,0,1-5.1.15c-.56-.12.45-.41.09-.49-1.43.31-6.86.08-8.67.42.61-.08.64-.28.44-.32l-1.2.26c-1.35-.09-1.55-.12-1.33-.28-4.08,0,1.29.47-3.55.27.38,0,.2-.06,1-.1-4.86-.1-9.39.16-13.85,0-1.32-.38,3.9-.09,2.39-.41-6.44.07-13.33.45-19.56.36l1.16,0c-.87.53-4.64-.26-7.79,0,.77,0,1-.29.8-.24-4.27-.08-8.73.14-15.19.3l.8-.13c-2.51-.13-6.62-.07-9.34-.14-.81.14-2.36.12-1.42.32-8.37-.78-16,.41-23.4-.23.88,0,2.11-.12,1.41-.12l-6.33.12a8.6,8.6,0,0,0,2.16.32,31,31,0,0,1-4.16.24c2.85-.15,0-.37-1.25-.5.2.07-.22.15-.12.22-3.3-.41-.55.47-5.06.19l.23-.12c-1.69.06-3.24.22-5.06.19-.76-.27,1.79-.13,1.91-.35-2.56,0-5,.51-7.37.24,1.09-.07,2.65-.07,3.74-.15a32.91,32.91,0,0,0-4.69-.28h.19l-4.34-.14,1.11.08c-3.21.7-6.52.13-10.84.58,4.19-.43.69-.25,1-.55-1.11-.08-2.78-.18-2.3-.26-2,.24-3.41-.19-6.29.16-.12-.09-2.18,0-1.72-.25-2.65.08.63.17.41.29-4.09.33-9.61-.4-15.49.05-5.07.19-6,.52-10.71.68-1.58-.15,1.3-.35,1.3-.35a63.56,63.56,0,0,0-6.9,0c.49-.08,0-.15-.75-.26-1.94,0-1.29.35-3.85.21a12.81,12.81,0,0,1,1.94-.39c-2.29.09-4.54.27-6.9.36-.63-.17,1.42-.26,2.26-.37a64.07,64.07,0,0,0-7.7.42l1.7.1c-1,0-.5-.23.22-.28a7.23,7.23,0,0,1,3.41.19l-1.69.06c1.73.57,6.76-.09,10.15-.06l-1.41.42,3.47-.35c.74.11,1.25.34-.43.41,2.43.2,2.15-.15,4.24.08.23,0,.13.05-.09.07l2.37-.12c-.46.08.4.29-1.06.23,4.26.24,6.87-.31,8.47,0l-.35,0c5.91-.14.57-.31,5-.67l3,.76.58-.31c.61,0,1.82,0,1.6.16,2.27-.21-.39-.14.93-.33,2.93.28,8.09-.13,8.75.35,1.05-.23-2.81-.18.32-.34.9.53,3.63-.09,6.31.15-.83.27-3.37.13-.68.37,1.61-.45,5.22.1,7.48,0,.1-.36,4.91-.15,8.71-.27-.24.12,7.13.2,10.66.33l-.1.06c.68-.36,4.32-.29,7-.37-.1.22-.58.31-2,.4h2.49a19.12,19.12,0,0,1,3-.22l-.63.28c3.32,0,6.68-.33,11-.14.24-.26-3.39-.72,1.12-.89.17.14.33.38-.85.43a19.35,19.35,0,0,1,2.16,0l-1.8.23c1.94.1,1-.19,2.57-.17,0,.2,1.15.14.93.3a17.78,17.78,0,0,0-2,0,38.06,38.06,0,0,1,4.57.3c-.16-.11,0-.26,1.28-.29,3.32,0,1.13.24,3.07.34.8-.14,2.92,0,3-.29a4.54,4.54,0,0,1,1.53.22c1.71-.13,8,0,6.08-.35l-.44,0h.28c5.63-.3,11.69.16,17.27,0v.09c3.34-.11,7.42-.06,9.8-.27,1,0,2.33.18,1.9.29a59.72,59.72,0,0,1,6.52,0c-2.56.17.88.15-2.63.13a55.49,55.49,0,0,0,7.62,0c-1.21.25,2.49.32,4.06.24l-2.32-.18c1.77,0,3.32,0,4.89,0l-.85.33c6.77.41,12.21-.69,17.37,0,1.79-.23-3.68-.16-2.08-.43,3.12,0,6.37.52,7.34.52,4.27.18,4-.49,8.45-.36-.57-.12-1.11-.44,2.23-.55,3.12.05,3.83.5,1.86.59-.75,0-1.11,0-1.08-.06-1,0-2.32.09-1.09.22l.4-.12c1.55.12,5.84.11,4.83.3,2.36-.11,1-.19-.73-.25,4,.17,6.24,0,10.36.12-.66-.07-1.26-.21-.61-.21,6,.15,2.66-.22,6.75-.27,2.33.18-.83.43,3.29.28,2.51.12.53.31-.47.41a90.5,90.5,0,0,1,9.15.19l-2,.1c1.18-.06,2.15-.06,3.13-.06l-1.13-.23a9.14,9.14,0,0,1,2.13.14c1.19-.16-.92-.4,1.45-.61,1.55.12,4.71-.13,5.25.18-4.87-.1.54.32-3.58.37.79,0,1.76,0,2.93,0,.17,0-.17.06-.49.08,4.66.28,2.14-.36,7-.35-.61.18,1.12.34,1.9.3-1.94,0-.93-.3.86-.43,3.09.14,3.36-.1,5-.09l-1.85-.06a28.63,28.63,0,0,1,4.33-.21c.19.14-2,.09-1.19.15,2.4-.31,5.41.33,8.75.12,1.55.12.15.33,1.51.41,3.74-.23,4.05.24,8,.05-1.14-.23-1.34-.18,1.43-.41l-6.46.17,4.15-.35c-1.95,0-4.12.15-5.29.11,2-.19,1.77-.13.84-.33,2.67.36,5.29-.21,8.38,0l-.09.59c4.64.27,8.24-.3,14.27-.15l-1.94-.11c.81-.23,3.72,0,5.67-.12-.18.19,1,.27,1.87.39-.1-.15,4.41,0,5-.38l2.69.26c4.87.1,5.55-.56,10.23-.5-1.41.22.72.36-2.41.51a13.38,13.38,0,0,0,3-.1c.91.13,4.33-.26,5.76-.08a10.07,10.07,0,0,1,2.63-.27c.19,0,0,.09,0,.09s2.75-.13,1.21-.35c4.81.62,13.45,0,17.64.49,3.41-.07,7.51-.13,10.6-.15-.19.06,0,.1-.59.08,4.27.18,2.62-.57,7.48-.36,2.48.32-2.58.17-1,.29.67.65,5.86-.09,9.13.29l-.79,0c2.49.22,6.09-.24,10.17-.2,0,0-.2.06,0,.1,2.79-.33,8.07-.44,12-.53-1.22.25-1.78.13-1,.39,1.76,0-.51-.42,3-.49,1.14.14,3.68.26,4,.54H414c1.7.36,4.29,0,6,0l-.22.16c5.08,0,5.15-.44,10.61-.42l-.57-.11c3-.39,2.51.21,5.48-.07l.9.39c2-.09,6.9-.38,10.43-.46-2,.3-6.13.45-8.69.62,1.95,0,6.63,0,7.65-.22a24.39,24.39,0,0,1-2.56.07,76.86,76.86,0,0,1,9.43-.46c-.68.77,10.14.2,13,.79,6.88-.28,13.64.12,21.65.08-2.84-.6,2.34,0,1.85-.63a23,23,0,0,1,2.75,0l5.65.36c1.34.18-1.77.14-1.6.28,4.09,0,1.71.26,4.42.42-.56-.22,1.42-.31,3.75-.23l-3.28-.28c5.71-.33,4.93.51,10.69.19l-1.82.19c3-.11,10.9,0,13.79-.49.52.07,1.21.24-.09.28,7.06.08,15.72-.52,21.2-.22l-.53.15a25.69,25.69,0,0,1,3.94-.13c-.09.07-.53.15.08.16a51.64,51.64,0,0,1,5.24-.17l-1.49.16c6.89.2,10.57-.4,16.34-.51,0,.44,5.4.59,8.11.66l-.1.06c8,.05,13.62-.37,21-.54,4.61.48,15.61.2,23,.47-1.13-.08.18-.34,1.5-.39,1.74.09,4.8-.3,4.53.1h-.62c1.31.4,4.88.29,7.67.3l.46-.52c7.3.76,19.12-.29,23.1.4,1.76-.13,3.94-.13,5.69-.26l-.1.28c4.88.08,7.31.11,13.34,0l-1.23.21c3.41,0,4.3-.82,7.44-.84l.94.43c5.93,0,11.94.36,17.8,0-.09.06-.27.18-1.23.2,2.79,0,10.81.28,9.79-.3.07.38,6.12,0,9.33-.13l-.5.28a42.16,42.16,0,0,1,6.57-.55c.89,0,.78.22-.41.15,3,.15,2.33-.26,5.94-.11l-1.34.18a20.43,20.43,0,0,0,4.51-.29,28.58,28.58,0,0,1,6.27.33,14.44,14.44,0,0,1,3.91-.29c.24.09-.42.15-.75.18,5.13.19,7.63-.32,11.16-.05a1,1,0,0,0,.6.17c-4.08,0-7.36,0-7.05,0,0,.25,3.29.3.67.65,2.64-.19,7.16-.61,10.37-.49a2.31,2.31,0,0,1,.43.09l-.34,0c.74,0,1.41,0,2,0,1,0,1.68.07,2.66.07a39.62,39.62,0,0,0,5.42.13c-.14-.28,2-.24,0-.47a6.52,6.52,0,0,1-1.4,0l-.7,0,.11,0-4.08,0a21.81,21.81,0,0,1,4.46-.11c.85-.18,1.77-.36,2.3-.45,2.24.39,6.58.6,7.18.84,5-.15,11.81-.1,15-.63a5.66,5.66,0,0,1,2.17.24c-.82,0-1.8,0-2.24.12,2.85-.14,8.44-.06,9.12-.42,3.59.16-2,.33,2.92.27l-.67.12c9.71.59,15.79-.94,26.55-.19a6,6,0,0,1-1.27-.13c12.28.34,25.29-.31,37.41.22a31.61,31.61,0,0,0,5.91-.31l.75.3,3.59-.35c5.09-.25,8.82.75,15.27.26l-.83-.2c2.31,0,7.33-.12,7,.11a4.74,4.74,0,0,1,1.66-.1l.07.16,5.69-.27c4.41.11-.69.62,5.75.65,2.39-.06,6.81-.46,5.91-.56a8.57,8.57,0,0,1-2.54-.26l2.19-.08c.4-.47,2.08-.94-3.29-1.27l-3.74.29-1.21-.23h3.15a16.11,16.11,0,0,0-4.19.1,5.78,5.78,0,0,0-1.56-.25l-3.68.45c-.44-.19,1.65-.37-.82-.47-1.72.21,1.65.41-1.2.55a9.33,9.33,0,0,0-3.37-.21c-.29-.12.15-.19,1-.24-1.87.14-4.95.06-5.92.3-1.87-.26-6.32.07-6.13-.37a47.53,47.53,0,0,1-5,.37c3.13-.53-6.44,0-5.61-.6-2.32.47-8.39.21-12.5.47a5.92,5.92,0,0,1,1-.09c-2.32,0-3-.18-4.48-.27-.3.39-3.9.48-5.85.72-2.84-.37,1.73-.46.84-.82.14.32-4.94.32-4,.58a11.36,11.36,0,0,1-3-.44c-.38.49-2,.09-3.82.39-3.15-.24-.81-.46-4.26-.31C836.59,543.16,839.66,543,839.66,543Zm-82.09.85h0l1.69,0Zm-6.9,0h3c.24.09,0,.19-.71.19A12.18,12.18,0,0,0,750.67,543.84Zm14.59,1.94a4.94,4.94,0,0,1-1.6-.07l1.91,0,.12,0A1.07,1.07,0,0,1,765.26,545.78Z" transform="translate(-2.54 -1.96)"/><path class="cls-2" d="M767.23,545.42l.45,0-.66-.06-.38.09Z" transform="translate(-2.54 -1.96)"/><path class="cls-2" d="M141.84,545H142l-.31,0Z" transform="translate(-2.54 -1.96)"/><polygon class="cls-2" points="652.86 541.34 652.87 541.41 653.48 541.35 652.86 541.34"/><path class="cls-2" d="M103.85,544a2.81,2.81,0,0,0-.5-.07A2.13,2.13,0,0,0,103.85,544Z" transform="translate(-2.54 -1.96)"/><path class="cls-2" d="M87.43,544l-2.32-.1C86.11,543.93,86.85,544,87.43,544Z" transform="translate(-2.54 -1.96)"/><path class="cls-2" d="M74.81,543.83a.61.61,0,0,0-.24.12h0Z" transform="translate(-2.54 -1.96)"/><path class="cls-2" d="M275.46,543.5H276C277.09,543.43,276.31,543.46,275.46,543.5Z" transform="translate(-2.54 -1.96)"/><path class="cls-2" d="M215.75,544.16c.63,0,1.26-.1,1.92-.13C216.61,544,215.78,544,215.75,544.16Z" transform="translate(-2.54 -1.96)"/><path class="cls-2" d="M342.14,543.16h0Z" transform="translate(-2.54 -1.96)"/><path class="cls-2" d="M220.45,544a25.66,25.66,0,0,0-2.78,0C218.54,544,219.57,544.07,220.45,544Z" transform="translate(-2.54 -1.96)"/><path class="cls-2" d="M20.12,543.7h-.61s0,0-.07,0Z" transform="translate(-2.54 -1.96)"/><path class="cls-2" d="M19.44,543.74l-.68,0A3.74,3.74,0,0,0,19.44,543.74Z" transform="translate(-2.54 -1.96)"/><path class="cls-2" d="M17.34,543.84l1.42-.07A7.59,7.59,0,0,0,17.34,543.84Z" transform="translate(-2.54 -1.96)"/><path class="cls-2" d="M36.82,543.83l.19-.1A.28.28,0,0,0,36.82,543.83Z" transform="translate(-2.54 -1.96)"/><path class="cls-2" d="M41.9,543.8c-1.21,0-3-.21-4.73-.15l-.16.08C37.81,543.58,40.75,544,41.9,543.8Z" transform="translate(-2.54 -1.96)"/><path class="cls-2" d="M63.09,545.06,58.84,545c.74.11,1.72.26-.22.28C64,545.59,57.52,545,63.09,545.06Z" transform="translate(-2.54 -1.96)"/><path class="cls-2" d="M76.28,545.22c-2.29,0,0,.16-.09.22C77.64,545.34,78,545.32,76.28,545.22Z" transform="translate(-2.54 -1.96)"/><path class="cls-2" d="M171.6,545.22l-.23.26C173.14,545.44,171.39,545.38,171.6,545.22Z" transform="translate(-2.54 -1.96)"/><polygon class="cls-2" points="187.28 541.94 185.57 541.78 184.75 542.01 187.28 541.94"/><polygon class="cls-2" points="198.05 543.76 197.28 543.8 200.22 543.71 198.05 543.76"/><path class="cls-2" d="M360.69,545.63l-.54-.31C359,545.37,358.71,545.73,360.69,545.63Z" transform="translate(-2.54 -1.96)"/><path class="cls-2" d="M429.8,545.31a15.62,15.62,0,0,0,3.89.11C432.14,545.39,430.59,545.27,429.8,545.31Z" transform="translate(-2.54 -1.96)"/><polygon class="cls-2" points="634.53 543.86 633.14 543.97 635.76 543.88 634.53 543.86"/></svg>