<svg id="Gruppe_633" preserveAspectRatio="none" data-name="Gruppe 633" xmlns="http://www.w3.org/2000/svg" width="765.398" height="428.932" viewBox="0 0 765.398 428.932">
  <g id="Gruppe_533" data-name="Gruppe 533" transform="translate(0)">
    <g id="Gruppe_532" data-name="Gruppe 532">
      <g id="Gruppe_531" data-name="Gruppe 531">
        <g id="Gruppe_530" data-name="Gruppe 530">
          <path id="Pfad_699" data-name="Pfad 699" d="M572.033,383c.133,1.117.4.447.267-2.568l-.4-2.233Z" transform="translate(190.831 44.143)" fill="#202020"/>
          <path id="Pfad_700" data-name="Pfad 700" d="M572.833,364.542c-.267-3.573-.533-7.817-.933-5.472.4,3.574.267,4.467.8,8.375,0,3.127-.134,5.36-.267,4.914.133,1.117-.133,4.8.133,6.477a101.7,101.7,0,0,0,.134-14.406C572.567,363.2,572.7,364.319,572.833,364.542Z" transform="translate(190.831 41.831)" fill="#202020"/>
          <path id="Pfad_701" data-name="Pfad 701" d="M573.1,93.9v0Z" transform="translate(191.231 10.96)" fill="#202020"/>
          <path id="Pfad_702" data-name="Pfad 702" d="M497.718.812A9.219,9.219,0,0,0,500.252.7C498.652.812,497.318.812,497.718.812Z" transform="translate(166.054 0.082)" fill="#202020"/>
          <path id="Pfad_703" data-name="Pfad 703" d="M469.2.5h0Z" transform="translate(156.562 0.058)" fill="#202020"/>
          <path id="Pfad_704" data-name="Pfad 704" d="M573.1,94.428l.133-5.025A33.62,33.62,0,0,0,573.1,94.428Z" transform="translate(191.231 10.432)" fill="#202020"/>
          <path id="Pfad_705" data-name="Pfad 705" d="M571.8,326.7a16.6,16.6,0,0,0,.133,2.68v-2.568A.117.117,0,0,1,571.8,326.7Z" transform="translate(190.797 38.132)" fill="#202020"/>
          <path id="Pfad_706" data-name="Pfad 706" d="M573.3,167.6v1.563c0,.447.133.893.133,1.228Z" transform="translate(191.298 19.562)" fill="#202020"/>
          <path id="Pfad_707" data-name="Pfad 707" d="M573.534,224.457A6.234,6.234,0,0,0,573,222a19.033,19.033,0,0,1,.267,3.127C573.4,225.127,573.4,225.015,573.534,224.457Z" transform="translate(191.198 25.911)" fill="#202020"/>
          <path id="Pfad_708" data-name="Pfad 708" d="M572.9,314v0Z" transform="translate(191.164 36.65)" fill="#202020"/>
          <path id="Pfad_709" data-name="Pfad 709" d="M573.4,127.158a4.153,4.153,0,0,0,.133-.558A1.176,1.176,0,0,0,573.4,127.158Z" transform="translate(191.331 14.777)" fill="#202020"/>
          <path id="Pfad_710" data-name="Pfad 710" d="M507,381.2Z" transform="translate(169.175 44.493)" fill="#202020"/>
          <path id="Pfad_711" data-name="Pfad 711" d="M572.967,382.6h-1.2c-.133.112-.267.112-.267.223Z" transform="translate(190.697 44.656)" fill="#202020"/>
          <path id="Pfad_712" data-name="Pfad 712" d="M416.9.1h0Z" transform="translate(139.111 0.012)" fill="#202020"/>
          <path id="Pfad_713" data-name="Pfad 713" d="M.5,66.417c.4-6.03.4,9.827.8.782C1.033,67.98.633,58.823.5,66.417Z" transform="translate(0.167 7.398)" fill="#202020"/>
          <path id="Pfad_714" data-name="Pfad 714" d="M571.8,325.468v0Z" transform="translate(190.797 37.688)" fill="#202020"/>
          <path id="Pfad_715" data-name="Pfad 715" d="M1.1,66.893h0v0Z" transform="translate(0.367 7.703)" fill="#202020"/>
          <path id="Pfad_716" data-name="Pfad 716" d="M296.4.3c.267,0,.934.112,1.6.112A5.706,5.706,0,0,0,296.4.3Z" transform="translate(98.902 0.035)" fill="#202020"/>
          <path id="Pfad_717" data-name="Pfad 717" d="M386.934.7h0Z" transform="translate(128.133 0.082)" fill="#202020"/>
          <path id="Pfad_718" data-name="Pfad 718" d="M251,.705c-1.6,0-2.134-.112-4.4,0h.667C248.067.705,249.134.594,251,.705Z" transform="translate(82.285 0.077)" fill="#202020"/>
          <path id="Pfad_719" data-name="Pfad 719" d="M201.4.7a4.377,4.377,0,0,1,1.2.112h2Z" transform="translate(67.203 0.082)" fill="#202020"/>
          <path id="Pfad_720" data-name="Pfad 720" d="M359.6,381.3c1.467.112,2.267.223,2.934.335C361.6,381.412,371.2,381.3,359.6,381.3Z" transform="translate(119.991 44.505)" fill="#202020"/>
          <path id="Pfad_721" data-name="Pfad 721" d="M571.933,326.763a4.632,4.632,0,0,1-.133-1.563v1.787C571.933,327.21,571.933,327.21,571.933,326.763Z" transform="translate(190.797 37.957)" fill="#202020"/>
          <path id="Pfad_722" data-name="Pfad 722" d="M250.469,2.9h0Z" transform="translate(80.15 0.338)" fill="#202020"/>
          <path id="Pfad_723" data-name="Pfad 723" d="M11.8,381.3h0Z" transform="translate(3.937 44.505)" fill="#202020"/>
          <path id="Pfad_724" data-name="Pfad 724" d="M219.035,2.923C217.168,2.812,215.3,2.7,213.3,2.7a3.922,3.922,0,0,0-1.2.112Z" transform="translate(70.773 0.315)" fill="#202020"/>
          <path id="Pfad_725" data-name="Pfad 725" d="M361.9,381.6Z" transform="translate(120.758 44.54)" fill="#202020"/>
          <path id="Pfad_726" data-name="Pfad 726" d="M550.276,425.358c-9.736,0-4.534.447-6.668.67-11.736.112-5.468-.335-9.336-.558-7.335.112-12.937.447-18.271.447-.4-.112-1.467-.112-.267-.223-7.735.335-22.939,0-31.875.447a8.741,8.741,0,0,1-1.2-.112c1.467.223,1.734.447,1.334.558-4.4,0-8.135.223-9.736,0a27.924,27.924,0,0,0,4.134-.223l-4.534.112c-4.134-.335,6.268-.112,6.268-.447-8.936.112-19.472.447-26.274.335-1.467-.335,16-.112,6.935-.447l10.669.112c-8.135-.558,6.4,0-1.067-.558-14-.112-15.6.223-29.608.112-3.2.223,1.067.335-2.134.558-19.872.335-15.6-1.005-30.141-.447a97.555,97.555,0,0,1-15.6.447l3.6-.447c-13.6,0-7.735.67-21.872.335,2.534-.223,10.669-.112,8.536-.223-9.2-.335-6.535.223-13.6.223l-1.467-.335c-14.4.112-30.275.223-46.279.447.934-.112,3.6-.223-.133-.335-20.139.223-42.944,0-62.416-.223l-7.469.335c-1.734,0-3.2-.112-1.334-.223-7.6-.112-.4.223-4,.335-4.268,0-5.735-.223-2.934-.335-13.337.223-38.01.558-52.147.223l2.8-.112c-10.936-.112-12.4.67-22.539.335l2-.112c-23.739-.112-50.146.112-68.284-.335-3.468.447-23.606-.223-25.073.447-13.6-.335-9.736-.447-28.807-.67-5.068,0-7.6.447-14,.447l-.133-.335-8.536.335-4.535-.447-5.868.112c2.4,0,5.068.112,4.668.223-3.468.112-7.6,0-11.336,0-1.867,0-3.6-.112-5.2-.112h-2c-.267,0-.4,0-.533-.112a.449.449,0,0,1,.133-.335c0-.112,0-.112.133-.223l-.4-18.314a48.985,48.985,0,0,1,.267,5.919c-.4-9.827.4-1.787,0-10.72-.133,1.228-.267-.67-.267-.893.267-4.467.267-14.629.133-22.223l.267,1.452c.133-13.624-.133-28.7-.133-44-.133,5.472-.667,4.243-.667-.223l.4-1.787c-.267-2.9-.133,4.69-.533-1.228,0-5.7.533-3.8.667-.558l-.133-6.924c.133-.447.133,1.228.4,1.675-.267-2.792.4-11.949,0-16.081l.133-.335C4,295.6,4,288.672,4,276.276c-.4-.223-.267-5.137-.533-8.822.133-9.157.4-19.319.4-30.263-.133-7.705-.267-2.233-.533-5.7.4-.558.267-11.614.533-5.807,0-13.177-.133-16.862-.4-33.613-.133,1.787-.267,3.909-.267,2.792,0-3.015.133-6.924.267-6.477v.782c-.533-18.761.934-43.329.267-58.181v.782l-.4-15.522c0-7.147.267,4.244.533-1.005C3.334,98.495,4,88.891,3.6,75.043c1.067-10.609-.133-37.745.533-52.151l-.267.782C3.6,19.989,4,19.208,4,16.416c-.133.335-.267,4.02-.4,1.675,0-5.025,0-10.162-.133-15.3,7.335,0,14.8,0,22.406.112,8,0,16.138.112,24.14.112,16.4.223,32.542.335,48.413.447,14.137,0,8-1.005,25.74-.558l-5.068.335c28.407-.447,58.148,0,86.022-.335a37.85,37.85,0,0,1-4.4.223c2.934.112,8.4.112,13.07.112,2.4,0,4.535-.112,6.135-.112s2.667-.112,2.667-.112c4.4,0,1.067.223,3.734.335,5.868.112,14.8-.335,18-.112.533,0-1.6.112-2.8.112,3.868-.112,17.871,0,14.27-.223,10.4.112,20.005-.112,28.274,0,5.468-.335,17.871.112,19.605-.335-.8.558,18.271.447,24.94.223-2.267.112,5.735.112,3.2.335,7.6,0,14.4-.112,13.07-.335,13.87.558,27.874-.447,35.743.335,22.406-.223,43.078-.447,63.216-.558-.667.558-22.272,0-21.472.558,19.072-.223,30.141-.67,49.079-.558,4.935.112-2.8.223-4.4.335,19.072-.223,36.943,0,53.881-.223,0,0-1.867.112-3.6.112,3.334,0,7.735.112,7.469-.112l-3.2.112c-5.335-.335,13.337-.67,13.87-.893-5.735.67,16.8.112,7.735,1.005,2.267,0,4.935-.112,4.4-.335,3.334,0,4.268.112.934.335,12-.112,7.735-.335,18.538-.335,0,.112-2.267.112-3.334.335,5.468-.223,11.07-.447,20.272-.335-.533.112.533.112-2.267.112,15.737,0,26.94-.558,44.145-.335-5.068.447,5.868.112,6.8.558l9.336-.112L638.3,2.792c8.135,0,15.337-.335,22.406-.112l-5.868-.112,15.337-.112L661.5,2.345c8.269-.223-.934-.558,10-.447-2.267,0,8.135,0,12.4.223h0c4-.112,8.135-.223,14.27-.223,1.6.112-1.2.447-.267.558,4-.335,19.072-.112,24.14-.447-1.734.112-1.734.335-1.2.335l3.334-.335c3.734.112,4.268.112,3.734.335,11.336,0-3.6-.558,9.869-.335-1.067,0-.534.112-2.8.112h14.67c4.535,0,9.069,0,13.6-.112V9.6c-.533,3.127-.133-9.045-.533-5.584.133,14.964.667,31.045.533,45.674v-2.68c.667,2.01-.4,10.832,0,18.2,0-1.787-.4-2.345-.267-1.9-.133,9.939.133,20.324.4,35.4l-.133-1.9c-.133,5.919-.133,15.411-.133,21.776.133,1.9.133,5.472.4,3.35-1.067,19.543.533,37.3-.267,54.608,0-2.122-.133-4.914-.133-3.238l.133,14.741a48.38,48.38,0,0,0,.4-5.025c.133,1.9.267,6.03.267,9.715-.267-6.589-.534.112-.667,2.9.133-.447.133.447.267.223-.534,7.705.667,1.34.267,11.837l-.133-.558c.133,3.909.267,7.594.267,11.837-.4,1.787-.133-4.244-.4-4.467,0,5.919.667,11.726.267,17.2,0-2.568-.133-6.142-.133-8.71-.4,5.919-.267,6.589-.4,10.944v-.447l-.133,10.162.133-2.568c.934,7.482.133,15.187.8,25.238-.534-9.827-.267-1.563-.8-2.345-.133,2.568-.267,6.477-.4,5.36.267,4.8-.267,7.929.267,14.629-.133.335,0,5.137-.4,4.02.133,6.142.267-1.452.4-.893.4,9.492-.533,22.446.133,36.07.267,11.837.667,13.959.934,25.014-.267,3.685-.534-3.015-.534-3.015-.133,5.919-.133,10.5,0,16.081-.133-1.117-.267,0-.4,1.787,0,4.467.533,3.015.267,8.934-.133-1.005-.4-2.345-.534-4.467.133,5.36.267,10.609.534,16.081-.267,1.452-.4-3.35-.534-5.249.133,6.142.267,16.081.534,17.979l.133-4.02c0,2.233-.267,1.117-.4-.558-.267-5.36.133-7.705.267-7.929l.133,3.908c.8-4.02-.133-15.746-.133-23.674l.533,3.238-.4-8.152c.133-1.675.4-2.9.534,1.005.267-5.7-.133-5.025.133-9.827,0-.558.133-.335.133.223l-.133-5.584c.133,1.117.4-.893.267,2.457.267-9.939-.4-15.969,0-19.766v.782c-.133-13.736-.4-1.34-.934-11.726l1.067-6.924-.4-1.34c0-1.452,0-4.243.267-3.685-.267-5.249-.133.893-.4-2.122.4-6.812-.133-18.873.534-20.436-.267-2.457-.267,6.589-.4-.782.667-2.122-.133-8.487.267-14.741.4,1.9.133,7.817.534,1.563-.667-3.8.133-12.172,0-17.421-.534-.223-.267-11.5-.4-20.324.133.558.267-16.639.4-24.9l.133.223c-.534-1.563-.4-10.05-.534-16.3.267.223.4,1.34.534,4.69V188.39a67.068,67.068,0,0,1-.267-6.924l.4,1.452c0-7.705-.4-15.634-.133-25.573-.4-.558-.934,7.929-1.2-2.568.133-.335.534-.782.534,2.01,0-.893-.133-3.238-.133-5.025l.267,4.244c.133-4.579-.267-2.345-.267-6.03.267.112.133-2.68.4-2.122,0,.893-.133,3.127,0,4.579,0-4.132.267-9.045.4-10.609-.133.335-.4,0-.4-3.015,0-7.705.267-2.68.4-7.147-.133-1.9,0-6.812-.4-6.924a17.02,17.02,0,0,1,.267-3.573c-.133-4.02,0-18.649-.534-14.182v.335h0c-.4-13.177.267-27.248,0-40.314h.133c-.133-7.817-.133-17.309-.4-22.893,0-2.345.267-5.472.4-4.467-.133-5.919-.267-6.589,0-15.187.267,5.919.267-2.01.133,6.142.133-7.705.267-9.492,0-17.756.4,2.792.4-5.807.267-9.492l-.267,5.36V.558H759.13l2.4-.335c-18.8-.447-34.009.782-48.412,0-4.935.223,10.269.223,5.735.447-8.669,0-17.738-.558-20.405-.558-11.87-.223-11.069.558-23.473.447,1.6.112,3.067.447-6.268.558-8.669,0-10.669-.558-5.2-.67,2.134,0,3.067,0,2.934.112,2.8,0,6.535-.112,3.067-.223l-1.334.447C663.905.67,651.9.67,654.7.447c-6.535.112-2.8.223,2,.335C645.5.558,639.366.782,627.9.67c1.867.112,3.468.223,1.734.223-16.8-.223-7.335.112-18.8.223-6.535-.223,2.267-.447-9.2-.335-7.068-.112-1.467-.335,1.334-.447-10.4.223-19.472-.223-25.473-.223L582.951,0c-3.334.112-6,.112-8.669.112l3.2.223a53.745,53.745,0,0,1-5.868-.112c-3.334.223,2.534.447-4,.67-4.268-.112-13.07.112-14.67-.223,13.6.112-1.467-.335,10-.447H554.81c-.533,0,.4-.112,1.334-.112-12.937-.335-6,.447-19.338.335,1.734-.223-3.068-.335-5.335-.335,5.468,0,2.534.335-2.4.447C520.4.447,519.735.67,515.2.67l5.2.112c-1.734.223-6,.223-12,.223-.533-.112,5.468-.112,3.334-.223-6.668.335-15.071-.335-24.406-.112-4.268-.112-.4-.335-4.134-.447C472.789.447,471.856,0,460.919.112c3.2.223,3.734.223-4,.447l18-.223L463.32.67c5.468,0,11.47-.223,14.671-.112-5.468.223-4.935.112-2.4.335-7.469-.447-14.8.223-23.339,0l.267-.67c-12.937-.335-22.939.335-39.744.223l5.335.112c-2.267.223-10.4,0-15.737.112.533-.223-2.934-.335-5.2-.447.267.112-12.27,0-13.87.447L375.831.335c-13.6-.112-15.471.67-28.541.558,3.868-.223-2-.447,6.668-.558-4.4,0-8.269,0-8.269.112-2.534-.112-12,.335-16,.112a64.54,64.54,0,0,1-7.335.335c-.533,0,0-.112,0-.112,0,.112-7.6.112-3.334.447-13.337-.67-37.476,0-49.079-.558-9.469,0-20.939.112-29.608.112.533-.112,0-.112,1.6-.112-11.87-.223-7.335.67-20.805.447-6.935-.335,7.2-.223,2.934-.335-1.867-.67-16.271.112-25.473-.335h2.267C193.917.223,183.914.67,172.445.67c0,0,.533-.112,0-.112-7.735.335-22.539.447-33.475.558C142.437.782,143.9,1.005,141.9.67c-4.935,0,1.467.447-8.4.558-3.2-.112-10.269-.335-11.2-.558h9.2c-4.668-.447-12,0-16.8,0l.667-.223c-14.137.223-14.4.67-29.608.558l1.6.112c-8.269.447-6.935-.223-15.2.112L69.618.782c-5.468.112-19.2.447-29.074.558,5.6-.335,17.071-.447,24.14-.67-5.468,0-18.4,0-21.339.223,2.134,0,4.935-.112,7.069-.112-6.668.335-15.471.558-26.273.558.667-.335-2.134-.447-6.535-.447C12.937.893,6.668.893.934.782V5.249A25.414,25.414,0,0,1,.8,8.487a41.429,41.429,0,0,1-.267,4.8C.934,29.37.4,45.115.4,63.765c.934-6.589.267,5.472,1.067,4.355v6.365L.934,87.774C.667,90.9.8,83.642.533,84.089c0,9.492-.4,4.02-.533,10.274.267-1.34.4,3.35.267,8.71l.4-7.705c.4,13.289-.667,11.5-.267,25.015l-.267-4.244C.267,123.062.133,141.6.8,148.3c-.133,1.228-.267,2.792-.4-.223-.133,16.416.667,36.628.267,49.471l-.133-1.228c0,3.127.4,5.36.133,9.157-.133-.223-.133-1.228-.267.223.133,1.675.4,8.152.267,12.284L.533,214.41c-.267,16.081.533,24.679.667,38.08-.533,0-.8,12.619-.934,18.873l-.133-.223C0,289.788.667,302.854.8,320.275.133,331,.533,356.68.133,373.989c.133-2.68.4.447.533,3.462-.133,4.02.4,11.167-.133,10.609v-1.452C0,389.623.133,398,.133,404.475L.8,405.592c-.133,3.127-.267,6.589-.4,10.274v12.619c8.4,0,16.8-.112,24.006-.112,6.8,0,12.537,0,16,.223,4.935-.112,10.936-.223,15.871-.335l-.267.335c13.6.112,20.405.112,37.21,0l-3.468.223c9.469,0,12-.893,20.672-.893l2.667.447c16.538,0,33.209.447,49.613,0-.267.112-.8.223-3.468.223,7.735,0,30.141.335,27.207-.335.133.447,17.071,0,26.007-.112l-1.334.335c7.469-.447,7.735-.558,18.271-.67,2.534,0,2.134.223-1.067.223,8.269.112,6.535-.335,16.538-.112l-3.734.223c8.536,0,7.869-.112,12.537-.335,5.335-.112,16.271.112,17.471.335a81.975,81.975,0,0,1,10.936-.335c.667.112-1.2.223-2.134.223,14.27.223,21.205-.335,31.075-.112a11.106,11.106,0,0,0,1.6.223H293.009c0,.335,9.2.335,1.867.782,7.335-.223,20.005-.67,28.941-.558a4.378,4.378,0,0,1,1.2.112h4.668c2.8,0,4.668.112,7.469.112,1.067.223,10.536.112,15.071.112-.4-.335,5.6-.223,0-.558H335.287c3.6-.112,7.335-.335,12.4-.112,2.4-.223,4.935-.447,6.4-.558,6.268.447,18.271.67,20.005.893,14-.223,32.942-.112,41.744-.67a52.638,52.638,0,0,1,6,.223c-2.267.112-5.068,0-6.268.112,8-.112,23.473-.112,25.473-.447,10,.223-5.6.335,8.135.335l-1.867.112c27.074.67,44.011-1.005,74.019-.223-2.134,0-3.067-.112-3.6-.112,34.142.335,70.418-.335,104.16.223,9.6.112,10.669-.112,16.538-.335l2.134.335,10-.335c14.137-.335,24.54.782,42.544.335l-2.267-.223c6.4,0,20.405-.112,19.338.112a42.363,42.363,0,0,1,4.668-.112l.133.223,15.871-.335c12.27.112-1.867.67,16,.782,6.668-.112,18.938-.558,16.538-.67-2.667,0-6.935-.112-7.068-.335l6.135-.112c1.067-.558,5.735-1.005-9.2-1.452l-10.4.335-3.334-.223h8.8c-4.935-.223-8.135,0-11.6.112a34.326,34.326,0,0,0-4.4-.223l-10.269.447c-1.2-.223,4.535-.447-2.267-.558-4.8.223,4.535.447-3.334.558-4.935-.223-3.467-.447-9.336-.223-.8-.112.4-.223,2.8-.223-5.2.112-13.737.112-16.538.335-5.2-.335-17.6.112-17.071-.447-1.6.112-9.2.335-14,.447,8.8-.558-17.871,0-15.6-.67-6.535.558-23.339.223-34.809.558.667,0,1.867-.112,2.934-.112-6.4,0-8.269-.223-12.536-.335-.8.447-10.936.558-16.271.782-7.869-.447,4.8-.558,2.267-.893.4.335-13.737.335-11.07.67a78.845,78.845,0,0,1-8.269-.447c-1.067.558-5.6.112-10.669.447-8.8-.223-2.267-.558-11.87-.335C541.74,425.581,550.276,425.358,550.276,425.358Zm-228.592.893Zm-19.2,0h8.4c.667.112,0,.223-2,.223C309.814,426.475,305.279,426.363,302.478,426.251Zm40.544,2.233a32.559,32.559,0,0,1-4.535-.112h5.735C343.956,428.373,343.689,428.485,343.022,428.485Z" transform="translate(0 0)" fill="#202020"/>
          <path id="Pfad_727" data-name="Pfad 727" d="M261.734,383.312h1.2a10.484,10.484,0,0,1-1.867-.112c-.4,0-.8.112-1.067.112Z" transform="translate(86.756 44.726)" fill="#202020"/>
          <path id="Pfad_728" data-name="Pfad 728" d="M573,95.935v0Z" transform="translate(191.198 11.158)" fill="#202020"/>
          <path id="Pfad_729" data-name="Pfad 729" d="M27.8,381.2v.112l1.734-.112Z" transform="translate(9.276 44.493)" fill="#202020"/>
          <path id="Pfad_730" data-name="Pfad 730" d="M572.133,175.3a7.278,7.278,0,0,0-.133,1.117A5.466,5.466,0,0,1,572.133,175.3Z" transform="translate(190.864 20.461)" fill="#202020"/>
          <path id="Pfad_731" data-name="Pfad 731" d="M572.033,209.6l-.133,5.36C572.033,212.615,572.033,210.94,572.033,209.6Z" transform="translate(190.831 24.464)" fill="#202020"/>
          <path id="Pfad_732" data-name="Pfad 732" d="M571.9,235.9c0,.335.133.447.133.558v-.112Z" transform="translate(190.831 27.534)" fill="#202020"/>
          <path id="Pfad_733" data-name="Pfad 733" d="M388.739,2.6h0Z" transform="translate(128.728 0.303)" fill="#202020"/>
          <path id="Pfad_734" data-name="Pfad 734" d="M514.035,1.9c-1.734,0-3.468.112-5.335.112C511.634,2.123,513.9,2.123,514.035,1.9Z" transform="translate(169.742 0.222)" fill="#202020"/>
          <path id="Pfad_735" data-name="Pfad 735" d="M248.967,2.9Z" transform="translate(82.719 0.338)" fill="#202020"/>
          <path id="Pfad_736" data-name="Pfad 736" d="M502.9,2c2.934.112,5.468,0,7.735,0Z" transform="translate(167.807 0.233)" fill="#202020"/>
          <path id="Pfad_737" data-name="Pfad 737" d="M571.7,350.2v0Z" transform="translate(190.764 40.875)" fill="#202020"/>
          <path id="Pfad_738" data-name="Pfad 738" d="M571.8,351.6v0Z" transform="translate(190.797 41.038)" fill="#202020"/>
          <path id="Pfad_739" data-name="Pfad 739" d="M571.933,356.35,571.8,353A25.453,25.453,0,0,0,571.933,356.35Z" transform="translate(190.797 41.202)" fill="#202020"/>
          <path id="Pfad_740" data-name="Pfad 740" d="M571.933,315.347l-.133-.447C571.8,315.123,571.8,315.235,571.933,315.347Z" transform="translate(190.797 36.755)" fill="#202020"/>
          <path id="Pfad_741" data-name="Pfad 741" d="M571.867,304.7c0,2.792-.267,7.035-.267,11.056l.133.335C571.6,314.192,572.134,307.38,571.867,304.7Z" transform="translate(190.731 35.564)" fill="#202020"/>
          <path id="Pfad_742" data-name="Pfad 742" d="M573.133,260.4,573,270.339c.133-1.787.4-4.02.4.447C573.8,258.39,573.133,273.466,573.133,260.4Z" transform="translate(191.198 30.393)" fill="#202020"/>
          <path id="Pfad_743" data-name="Pfad 743" d="M573.3,233.183c.133,5.36.267-.112.267.223C573.434,229.944,573.434,229.163,573.3,233.183Z" transform="translate(191.298 26.901)" fill="#202020"/>
          <path id="Pfad_744" data-name="Pfad 744" d="M573.3,33.939l.4.558C573.567,30.365,573.434,34.385,573.3,33.939Z" transform="translate(191.298 3.807)" fill="#202020"/>
          <path id="Pfad_745" data-name="Pfad 745" d="M566.8,2.2l4.8.223a13.108,13.108,0,0,1,1.734-.223Z" transform="translate(189.129 0.257)" fill="#202020"/>
          <path id="Pfad_746" data-name="Pfad 746" d="M545.935.3h2.134L539.8.412Z" transform="translate(180.12 0.035)" fill="#202020"/>
          <path id="Pfad_747" data-name="Pfad 747" d="M210,.4l1.467.335C214.8.737,215.468.29,210,.4Z" transform="translate(70.072 0.045)" fill="#202020"/>
          <path id="Pfad_748" data-name="Pfad 748" d="M68.3.824A84.249,84.249,0,0,0,57.5.713C61.768.713,66.169.824,68.3.824Z" transform="translate(19.187 0.069)" fill="#202020"/>
          <path id="Pfad_749" data-name="Pfad 749" d="M.433,370.738.3,367.5l.133,6.142Z" transform="translate(0.1 42.894)" fill="#202020"/>
        </g>
      </g>
    </g>
  </g>
</svg>
